<svg width="40" height="40" viewBox="0 0 40 40" fill="none" xmlns="http://www.w3.org/2000/svg">
<g clip-path="url(#clip0_572_14974)">
<path d="M20 0.833313C8.95 0.833313 0 9.63331 0 20.4866C0 29.1716 5.73 36.5366 13.675 39.1333C14.675 39.3183 15.0417 38.71 15.0417 38.1883C15.0417 37.7216 15.025 36.485 15.0167 34.8466C9.45333 36.0316 8.28 32.21 8.28 32.21C7.37 29.9416 6.055 29.335 6.055 29.335C4.24333 28.1166 6.195 28.1416 6.195 28.1416C8.20333 28.2783 9.25833 30.1666 9.25833 30.1666C11.0417 33.1716 13.94 32.3033 15.0833 31.8016C15.2633 30.53 15.7783 29.665 16.35 29.1733C11.9083 28.6816 7.24 26.9916 7.24 19.4616C7.24 17.3166 8.015 15.5633 9.29833 14.1883C9.07333 13.6916 8.39833 11.6933 9.47333 8.98665C9.47333 8.98665 11.1483 8.45998 14.9733 11.0016C16.5733 10.565 18.2733 10.3483 19.9733 10.3383C21.6733 10.3483 23.3733 10.565 24.9733 11.0016C28.7733 8.45998 30.4483 8.98665 30.4483 8.98665C31.5233 11.6933 30.8483 13.6916 30.6483 14.1883C31.9233 15.5633 32.6983 17.3166 32.6983 19.4616C32.6983 27.0116 28.0233 28.6733 23.5733 29.1566C24.2733 29.7466 24.9233 30.9516 24.9233 32.7933C24.9233 35.4233 24.8983 37.5366 24.8983 38.175C24.8983 38.69 25.2483 39.305 26.2733 39.1083C34.275 36.5283 40 29.1583 40 20.4866C40 9.63331 31.045 0.833313 20 0.833313Z" fill="#ED9C11"/>
</g>
<defs>
<clipPath id="clip0_572_14974">
<rect width="40" height="40" fill="white"/>
</clipPath>
</defs>
</svg>
