<svg width="40" height="40" viewBox="0 0 40 40" fill="none" xmlns="http://www.w3.org/2000/svg">
<g clip-path="url(#clip0_887_5003)">
<path d="M39.6875 2.77787L35.0211 0.0837341C34.9261 0.0288789 34.8183 0 34.7086 0C34.5989 0 34.4911 0.0288789 34.3961 0.0837341L29.7295 2.77787C29.6345 2.83273 29.5556 2.91162 29.5008 3.00663C29.4459 3.10164 29.417 3.20942 29.417 3.31912V8.70756C29.417 8.81727 29.4459 8.92504 29.5008 9.02005C29.5556 9.11506 29.6345 9.19396 29.7295 9.24881L34.3961 11.943C34.4911 11.9979 34.5989 12.0268 34.7086 12.0268C34.8183 12.0268 34.9261 11.9979 35.0211 11.943L39.6875 9.24881C39.7825 9.19396 39.8614 9.11506 39.9163 9.02005C39.9711 8.92504 40 8.81727 40 8.70756V3.31912C40 3.20942 39.9711 3.10164 39.9163 3.00663C39.8614 2.91162 39.7825 2.83273 39.6875 2.77787ZM34.7086 1.34662L38.125 3.31912L34.7086 5.29162L31.292 3.31912L34.7086 1.34662ZM30.667 4.4017L34.0836 6.3742V10.3195L30.667 8.34702V4.4017ZM35.3336 10.3192V6.3742L38.75 4.4017V8.34702L35.3336 10.3192ZM22.9922 20.625V34.567H25.5781C25.7439 34.567 25.9029 34.6329 26.0201 34.7501C26.1373 34.8673 26.2031 35.0263 26.2031 35.192C26.2031 35.3578 26.1373 35.5167 26.0201 35.634C25.9029 35.7512 25.7439 35.817 25.5781 35.817H22.3672C22.2014 35.817 22.0425 35.7512 21.9252 35.634C21.808 35.5167 21.7422 35.3578 21.7422 35.192V20.625H18.831C18.6653 20.625 18.5063 20.5591 18.3891 20.4419C18.2719 20.3247 18.206 20.1657 18.206 20C18.206 19.8342 18.2719 19.6753 18.3891 19.558C18.5063 19.4408 18.6653 19.375 18.831 19.375H21.7422V4.80795C21.7422 4.64219 21.808 4.48322 21.9252 4.36601C22.0425 4.2488 22.2014 4.18295 22.3672 4.18295H25.5781C25.7439 4.18295 25.9029 4.2488 26.0201 4.36601C26.1373 4.48322 26.2031 4.64219 26.2031 4.80795C26.2031 4.97371 26.1373 5.13268 26.0201 5.24989C25.9029 5.3671 25.7439 5.43295 25.5781 5.43295H22.9922V19.375H25.5781C25.7439 19.375 25.9029 19.4408 26.0201 19.558C26.1373 19.6753 26.2031 19.8342 26.2031 20C26.2031 20.1657 26.1373 20.3247 26.0201 20.4419C25.9029 20.5591 25.7439 20.625 25.5781 20.625H22.9922ZM39.6875 16.7645L35.0211 14.0703C34.9261 14.0154 34.8183 13.9866 34.7086 13.9866C34.5989 13.9866 34.4911 14.0154 34.3961 14.0703L29.7295 16.7645C29.6345 16.8194 29.5556 16.8983 29.5008 16.9933C29.4459 17.0883 29.417 17.1961 29.417 17.3058V22.6941C29.417 22.8038 29.4459 22.9116 29.5008 23.0066C29.5556 23.1016 29.6345 23.1805 29.7295 23.2354L34.3961 25.9297C34.4911 25.9846 34.5989 26.0135 34.7086 26.0135C34.8183 26.0135 34.9261 25.9846 35.0211 25.9297L39.6875 23.2354C39.7825 23.1805 39.8614 23.1016 39.9163 23.0066C39.9711 22.9116 40 22.8038 40 22.6941V17.3058C40 17.1961 39.9711 17.0883 39.9163 16.9933C39.8614 16.8983 39.7825 16.8194 39.6875 16.7645ZM34.7086 15.3333L38.125 17.3058L34.7086 19.2783L31.292 17.3058L34.7086 15.3333ZM30.667 18.388L34.0836 20.3605V24.3058L30.667 22.3333V18.388ZM35.3336 24.3055V20.3602L38.75 18.3883V22.3333L35.3336 24.3055ZM39.6875 30.7508L35.0211 28.057C34.9261 28.0022 34.8183 27.9733 34.7086 27.9733C34.5989 27.9733 34.4911 28.0022 34.3961 28.057L29.7295 30.7512C29.6345 30.806 29.5556 30.8849 29.5008 30.9799C29.4459 31.0749 29.417 31.1827 29.417 31.2924V36.6808C29.417 36.7905 29.4459 36.8983 29.5008 36.9933C29.5556 37.0883 29.6345 37.1672 29.7295 37.222L34.3961 39.9162C34.4911 39.9711 34.5989 40 34.7086 40C34.8183 40 34.9261 39.9711 35.0211 39.9162L39.6875 37.222C39.7825 37.1672 39.8614 37.0883 39.9162 36.9933C39.9711 36.8983 40 36.7905 40 36.6808V31.2924C40 31.1827 39.9711 31.0749 39.9163 30.9799C39.8614 30.8849 39.7825 30.806 39.6875 30.7512V30.7508ZM34.7086 29.3203L38.125 31.2924L34.7086 33.2649L31.292 31.2924L34.7086 29.3203ZM30.667 32.375L34.0836 34.3475V38.2928L30.667 36.3203V32.375ZM35.3336 38.2926V34.3472L38.75 32.375V36.3203L35.3336 38.2926ZM16.7608 14.8906L8.84922 10.3231C8.75419 10.2683 8.64642 10.2394 8.53672 10.2394C8.42702 10.2394 8.31924 10.2683 8.22422 10.3231L0.3125 14.8906C0.21749 14.9455 0.138593 15.0244 0.0837382 15.1194C0.0288831 15.2144 2.8574e-06 15.3222 7.03891e-08 15.4319V24.5678C-5.20145e-05 24.6776 0.0288022 24.7854 0.08366 24.8805C0.138518 24.9755 0.217444 25.0545 0.3125 25.1094L8.22422 29.677C8.31921 29.7319 8.427 29.7608 8.53672 29.7608C8.64644 29.7608 8.75423 29.7319 8.84922 29.677L16.7608 25.1094C16.8558 25.0545 16.9347 24.9756 16.9895 24.8806C17.0444 24.7856 17.0733 24.6778 17.0733 24.5681V15.4322C17.0733 15.3224 17.0445 15.2146 16.9896 15.1195C16.9348 15.0244 16.8558 14.9455 16.7608 14.8906ZM8.53672 11.5859L15.1983 15.432L8.53672 19.2781L1.875 15.4322L8.53672 11.5859ZM1.25 16.5148L7.91172 20.3608V28.053L1.25 24.2069V16.5148ZM9.16172 28.053V20.3608L15.8233 16.5148V24.2069L9.16172 28.053Z" fill="#ED9C11"/>
</g>
<defs>
<clipPath id="clip0_887_5003">
<rect width="40" height="40" fill="white"/>
</clipPath>
</defs>
</svg>
