<svg width="40" height="40" viewBox="0 0 40 40" fill="none" xmlns="http://www.w3.org/2000/svg">
<g clip-path="url(#clip0_572_14967)">
<path d="M19.9999 3.33331C16.7036 3.33331 13.4812 4.3108 10.7404 6.14215C7.9996 7.97351 5.86339 10.5765 4.60193 13.6219C3.34047 16.6674 3.01042 20.0185 3.6535 23.2515C4.29659 26.4845 5.88394 29.4542 8.21481 31.7851C10.5457 34.116 13.5154 35.7033 16.7484 36.3464C19.9814 36.9895 23.3326 36.6594 26.378 35.398C29.4234 34.1365 32.0264 32.0003 33.8578 29.2595C35.6891 26.5187 36.6666 23.2963 36.6666 20C36.6617 15.5812 34.9041 11.3449 31.7796 8.22032C28.655 5.09579 24.4187 3.33825 19.9999 3.33331ZM19.9999 35.3333C16.9673 35.3333 14.0027 34.434 11.4812 32.7492C8.95963 31.0643 6.99432 28.6696 5.83377 25.8678C4.67323 23.066 4.36958 19.983 4.96122 17.0086C5.55286 14.0342 7.01322 11.3021 9.15762 9.15768C11.302 7.01327 14.0342 5.55291 17.0085 4.96127C19.9829 4.36963 23.0659 4.67328 25.8677 5.83383C28.6695 6.99437 31.0643 8.95968 32.7491 11.4812C34.434 14.0028 35.3333 16.9673 35.3333 20C35.3289 24.0653 33.712 27.9628 30.8374 30.8374C27.9628 33.712 24.0652 35.3289 19.9999 35.3333Z" fill="#ED9C11"/>
<path d="M20 0C16.0444 0 12.1776 1.17298 8.88861 3.37061C5.59962 5.56824 3.03617 8.69181 1.52242 12.3463C0.00866572 16.0009 -0.387401 20.0222 0.384303 23.9018C1.15601 27.7814 3.06082 31.3451 5.85787 34.1421C8.65492 36.9392 12.2186 38.844 16.0982 39.6157C19.9778 40.3874 23.9992 39.9913 27.6537 38.4776C31.3082 36.9638 34.4318 34.4004 36.6294 31.1114C38.827 27.8224 40 23.9556 40 20C39.994 14.6975 37.885 9.61392 34.1355 5.86449C30.3861 2.11506 25.3025 0.00599929 20 0ZM20 38.6667C16.3081 38.6667 12.6991 37.5719 9.62937 35.5208C6.55965 33.4697 4.16709 30.5543 2.75426 27.1434C1.34142 23.7325 0.97176 19.9793 1.69202 16.3583C2.41228 12.7373 4.1901 9.41125 6.80068 6.80067C9.41126 4.19009 12.7373 2.41227 16.3583 1.69201C19.9793 0.971751 23.7325 1.34141 27.1434 2.75425C30.5543 4.16708 33.4697 6.55964 35.5208 9.62936C37.5719 12.6991 38.6667 16.3081 38.6667 20C38.661 24.949 36.6926 29.6936 33.1931 33.1931C29.6936 36.6925 24.949 38.661 20 38.6667Z" fill="#ED9C11"/>
<path d="M20.6666 19.4806V12.696C22.3959 12.8353 24.0153 13.496 24.8299 14.4366C24.9474 14.564 25.1099 14.6405 25.2829 14.6501C25.4559 14.6597 25.6258 14.6016 25.7567 14.488C25.8875 14.3745 25.9691 14.2145 25.984 14.0419C25.9989 13.8693 25.946 13.6976 25.8366 13.5633C24.7699 12.336 22.7906 11.51 20.6666 11.3633V9.99998C20.6666 9.82317 20.5963 9.6536 20.4713 9.52858C20.3463 9.40355 20.1767 9.33331 19.9999 9.33331C19.8231 9.33331 19.6535 9.40355 19.5285 9.52858C19.4035 9.6536 19.3333 9.82317 19.3333 9.99998V11.356C15.9193 11.5833 13.3333 13.5413 13.3333 16C13.3333 18.8553 16.4199 19.7833 19.3333 20.5193V27.304C17.6039 27.1646 15.9846 26.504 15.1699 25.5633C15.0524 25.436 14.8899 25.3594 14.717 25.3499C14.544 25.3403 14.374 25.3984 14.2432 25.5119C14.1123 25.6255 14.0308 25.7855 14.0159 25.9581C14.0009 26.1307 14.0538 26.3023 14.1633 26.4366C15.2299 27.664 17.2093 28.49 19.3333 28.6366V30C19.3333 30.1768 19.4035 30.3464 19.5285 30.4714C19.6535 30.5964 19.8231 30.6666 19.9999 30.6666C20.1767 30.6666 20.3463 30.5964 20.4713 30.4714C20.5963 30.3464 20.6666 30.1768 20.6666 30V28.644C24.0806 28.4166 26.6666 26.4586 26.6666 24C26.6666 21.1446 23.5799 20.2166 20.6666 19.4806ZM14.6666 16C14.6666 14.3333 16.7433 12.91 19.3333 12.6973V19.1413C16.4873 18.4 14.6666 17.6833 14.6666 16ZM20.6666 27.3026V20.8586C23.5126 21.6 25.3333 22.3166 25.3333 24C25.3333 25.6666 23.2566 27.09 20.6666 27.3026Z" fill="#ED9C11"/>
</g>
<defs>
<clipPath id="clip0_572_14967">
<rect width="40" height="40" fill="white"/>
</clipPath>
</defs>
</svg>
