<svg width="48" height="48" viewBox="0 0 48 48" fill="none" xmlns="http://www.w3.org/2000/svg">
<g clip-path="url(#clip0_593_15653)">
<path d="M39.3789 20.1593L29.3727 16.2718C29.6826 15.4287 29.841 14.5362 29.841 13.6071C29.841 10.9238 28.4853 8.55293 26.4236 7.13929C26.7404 6.36434 27.7138 4.81955 30.639 3.6418C31.075 3.46552 31.2862 2.96989 31.1108 2.53387C30.9353 2.09786 30.4406 1.88752 30.0028 2.06209C26.7498 3.37184 25.446 5.18999 24.9256 6.33879C24.0204 5.97346 23.0343 5.76737 22.0004 5.76737C20.9666 5.76737 19.9796 5.97346 19.0752 6.33879C18.554 5.19084 17.2511 3.37269 13.998 2.06209C13.5594 1.88581 13.0655 2.09786 12.8901 2.53387C12.7147 2.96989 12.9259 3.46637 13.3619 3.6418C16.2862 4.81955 17.2605 6.36348 17.5773 7.13843C15.5155 8.55293 14.1598 10.9238 14.1598 13.6071C14.1598 14.5354 14.3182 15.4278 14.6282 16.2718L4.62198 20.1593C2.33716 21.0466 0.668885 23.0079 0.159633 25.4059C-0.349619 27.8032 0.375937 30.2736 2.10212 32.0135C3.47318 33.3956 5.29644 34.1569 7.23637 34.1569C9.84565 34.1569 12.1875 32.8139 13.5007 30.5649L14.0636 29.6009C14.6001 36.5473 17.8881 41.7412 21.9996 41.7412C26.1111 41.7412 29.3999 36.5473 29.9356 29.6009L30.4985 30.5649C31.8116 32.8139 34.1535 34.1569 36.7628 34.1569C38.7036 34.1569 40.5268 33.3956 41.8979 32.0135C43.6241 30.2736 44.3496 27.8032 43.8404 25.4059C43.332 23.0079 41.6637 21.0466 39.3789 20.1593ZM15.8621 13.6071C15.8621 10.2229 18.6153 7.46885 22.0004 7.46885C25.3855 7.46885 28.1387 10.2221 28.1387 13.6071C28.1387 14.3216 28.0178 15.0063 27.7844 15.6544C26.8034 15.2737 24.1975 14.2612 22.3096 13.5271C22.1477 13.4641 21.8821 13.4538 21.6921 13.5271L16.2164 15.6544C15.9831 15.0071 15.8621 14.3216 15.8621 13.6071ZM27.4591 33.743H16.5417C16.1117 32.2953 15.8238 30.6765 15.7242 28.9605H28.2767C28.177 30.6765 27.8892 32.2953 27.4591 33.743ZM28.2971 26.7932C28.3039 26.9465 28.3065 27.1023 28.3099 27.2573H15.6918C15.6944 27.1015 15.6978 26.9465 15.7046 26.7932L18.2202 22.485H25.7815L28.2971 26.7932ZM19.214 20.7818L22.0004 16.0103L24.7868 20.7818H19.214ZM12.03 29.7056C11.0251 31.4267 9.23335 32.4537 7.23722 32.4537C5.7546 32.4537 4.36054 31.8712 3.31138 30.8144C1.99141 29.4834 1.43532 27.5937 1.82535 25.7602C2.21538 23.9267 3.49106 22.4262 5.23853 21.7475L19.438 16.2309C19.4431 16.2283 19.4491 16.2266 19.4542 16.2249L20.0341 15.9993L12.03 29.7056ZM22.0004 40.038C20.0707 40.038 18.3096 38.2301 17.1404 35.4454H26.8613C25.6912 38.2301 23.9301 40.038 22.0004 40.038ZM40.6895 30.8136C39.6412 31.8704 38.2463 32.4529 36.7636 32.4529C34.7666 32.4529 32.9749 31.4259 31.97 29.7048L23.9659 15.9976L24.545 16.2224C24.5484 16.2241 24.5526 16.2249 24.5561 16.2266L38.7615 21.7458C40.5089 22.4245 41.7855 23.925 42.1747 25.7585C42.5655 27.5937 42.0103 29.4825 40.6895 30.8136Z" fill="#ED9C11"/>
</g>
<defs>
<clipPath id="clip0_593_15653">
<rect width="48" height="48" fill="white"/>
</clipPath>
</defs>
</svg>
