<svg width="40" height="40" viewBox="0 0 40 40" fill="none" xmlns="http://www.w3.org/2000/svg">
<g clip-path="url(#clip0_887_5009)">
<path d="M37.3333 3.33333C37.3311 1.4933 35.84 0.00220408 34 0H3.33333C1.4933 0.00220408 0.00220408 1.4933 0 3.33333V34C0.00220408 35.84 1.4933 37.3311 3.33333 37.3333H23.224C27.16 40.9813 33.2757 40.8652 37.0705 37.0705C40.8652 33.2757 40.9813 27.16 37.3333 23.224V3.33333ZM1.33333 3.33333C1.33333 2.22876 2.22876 1.33333 3.33333 1.33333H34C35.1046 1.33333 36 2.22876 36 3.33333V5.33333H1.33333V3.33333ZM3.33333 36C2.22876 36 1.33333 35.1046 1.33333 34V6.66667H36V22.0187C32.0261 19.0146 26.4456 19.4006 22.9231 22.9231C19.4006 26.4456 19.0146 32.0261 22.0187 36H3.33333ZM38.6667 30C38.6667 34.7865 34.7865 38.6667 30 38.6667C25.2135 38.6667 21.3333 34.7865 21.3333 30C21.3333 25.2135 25.2135 21.3333 30 21.3333C34.7842 21.3388 38.6612 25.2158 38.6667 30Z" fill="#ED9C11"/>
<path d="M3.33341 3.99984C3.7016 3.99984 4.00008 3.70136 4.00008 3.33317C4.00008 2.96498 3.7016 2.6665 3.33341 2.6665C2.96522 2.6665 2.66675 2.96498 2.66675 3.33317C2.66675 3.70136 2.96522 3.99984 3.33341 3.99984Z" fill="#ED9C11"/>
<path d="M5.99992 3.99984C6.36811 3.99984 6.66659 3.70136 6.66659 3.33317C6.66659 2.96498 6.36811 2.6665 5.99992 2.6665C5.63173 2.6665 5.33325 2.96498 5.33325 3.33317C5.33325 3.70136 5.63173 3.99984 5.99992 3.99984Z" fill="#ED9C11"/>
<path d="M8.66667 3.99984C9.03486 3.99984 9.33333 3.70136 9.33333 3.33317C9.33333 2.96498 9.03486 2.6665 8.66667 2.6665C8.29848 2.6665 8 2.96498 8 3.33317C8 3.70136 8.29848 3.99984 8.66667 3.99984Z" fill="#ED9C11"/>
<path d="M22.6667 2.6665H14.6667C14.2985 2.6665 14 2.96498 14 3.33317C14 3.70136 14.2985 3.99984 14.6667 3.99984H22.6667C23.0349 3.99984 23.3333 3.70136 23.3333 3.33317C23.3333 2.96498 23.0349 2.6665 22.6667 2.6665Z" fill="#ED9C11"/>
<path d="M32.6666 27.3332H28.6666V25.3332C28.6666 24.5968 29.2635 23.9998 29.9999 23.9998C30.7363 23.9998 31.3333 24.5968 31.3333 25.3332C31.3333 25.7014 31.6317 25.9998 31.9999 25.9998C32.3681 25.9998 32.6666 25.7014 32.6666 25.3332C32.6666 23.8604 31.4727 22.6665 29.9999 22.6665C28.5272 22.6665 27.3333 23.8604 27.3333 25.3332V27.3332C26.2287 27.3332 25.3333 28.2286 25.3333 29.3332V34.6665C25.3333 35.7711 26.2287 36.6665 27.3333 36.6665H32.6666C33.7712 36.6665 34.6666 35.7711 34.6666 34.6665V29.3332C34.6666 28.2286 33.7712 27.3332 32.6666 27.3332ZM33.3333 34.6665C33.3333 35.0347 33.0348 35.3332 32.6666 35.3332H27.3333C26.9651 35.3332 26.6666 35.0347 26.6666 34.6665V29.3332C26.6666 28.965 26.9651 28.6665 27.3333 28.6665H32.6666C33.0348 28.6665 33.3333 28.965 33.3333 29.3332V34.6665Z" fill="#ED9C11"/>
<path d="M30 30C28.8954 30 28 30.8954 28 32C28 33.1046 28.8954 34 30 34C31.1046 34 32 33.1046 32 32C32 30.8954 31.1046 30 30 30ZM30 32.6667C29.6318 32.6667 29.3333 32.3682 29.3333 32C29.3333 31.6318 29.6318 31.3333 30 31.3333C30.3682 31.3333 30.6667 31.6318 30.6667 32C30.6667 32.3682 30.3682 32.6667 30 32.6667Z" fill="#ED9C11"/>
<path d="M13.5492 16.4912C13.7248 16.6522 13.9729 16.7074 14.2001 16.6359C14.4273 16.5643 14.5991 16.377 14.6507 16.1445C14.7024 15.912 14.6261 15.6696 14.4506 15.5086L11.3332 12.6866L14.4539 9.82457C14.6294 9.66356 14.7057 9.42113 14.6541 9.18861C14.6024 8.95609 14.4306 8.76879 14.2034 8.69728C13.9762 8.62576 13.7281 8.68089 13.5526 8.8419L10.4319 11.7039C10.1589 11.9494 10.0029 12.2994 10.0029 12.6666C10.0029 13.0338 10.1589 13.3837 10.4319 13.6292L13.5492 16.4912Z" fill="#ED9C11"/>
<path d="M22.8421 16.4506C22.9616 16.5809 23.128 16.6584 23.3047 16.666C23.4813 16.6736 23.6538 16.6108 23.7841 16.4912L26.9048 13.6292C27.1778 13.3837 27.3337 13.0338 27.3337 12.6666C27.3337 12.2994 27.1778 11.9494 26.9048 11.7039L23.7848 8.8419C23.6092 8.68089 23.3611 8.62576 23.1339 8.69728C22.9067 8.76879 22.7349 8.95609 22.6832 9.18861C22.6316 9.42113 22.7079 9.66356 22.8834 9.82457L26.0041 12.6466L22.8834 15.5086C22.753 15.628 22.6754 15.7943 22.6676 15.971C22.6599 16.1477 22.7226 16.3202 22.8421 16.4506Z" fill="#ED9C11"/>
<path d="M16.3233 16.5712C16.6388 16.7608 17.0483 16.6587 17.238 16.3432L21.238 9.67653C21.4195 9.36163 21.3154 8.95932 21.0038 8.77209C20.6922 8.58486 20.2881 8.68173 20.0953 8.98986L16.0953 15.6565C15.9057 15.9721 16.0078 16.3815 16.3233 16.5712Z" fill="#ED9C11"/>
<path d="M4.66667 20.6668C5.03486 20.6668 5.33333 20.3684 5.33333 20.0002C5.33333 19.632 5.03486 19.3335 4.66667 19.3335C4.29848 19.3335 4 19.632 4 20.0002C4 20.3684 4.29848 20.6668 4.66667 20.6668Z" fill="#ED9C11"/>
<path d="M4.66667 23.3333C5.03486 23.3333 5.33333 23.0349 5.33333 22.6667C5.33333 22.2985 5.03486 22 4.66667 22C4.29848 22 4 22.2985 4 22.6667C4 23.0349 4.29848 23.3333 4.66667 23.3333Z" fill="#ED9C11"/>
<path d="M4.66667 25.9998C5.03486 25.9998 5.33333 25.7014 5.33333 25.3332C5.33333 24.965 5.03486 24.6665 4.66667 24.6665C4.29848 24.6665 4 24.965 4 25.3332C4 25.7014 4.29848 25.9998 4.66667 25.9998Z" fill="#ED9C11"/>
<path d="M4.66667 28.6668C5.03486 28.6668 5.33333 28.3684 5.33333 28.0002C5.33333 27.632 5.03486 27.3335 4.66667 27.3335C4.29848 27.3335 4 27.632 4 28.0002C4 28.3684 4.29848 28.6668 4.66667 28.6668Z" fill="#ED9C11"/>
<path d="M4.66667 31.3333C5.03486 31.3333 5.33333 31.0349 5.33333 30.6667C5.33333 30.2985 5.03486 30 4.66667 30C4.29848 30 4 30.2985 4 30.6667C4 31.0349 4.29848 31.3333 4.66667 31.3333Z" fill="#ED9C11"/>
<path d="M4.66667 33.9998C5.03486 33.9998 5.33333 33.7014 5.33333 33.3332C5.33333 32.965 5.03486 32.6665 4.66667 32.6665C4.29848 32.6665 4 32.965 4 33.3332C4 33.7014 4.29848 33.9998 4.66667 33.9998Z" fill="#ED9C11"/>
<path d="M7.33341 20.6668H14.0001C14.3683 20.6668 14.6667 20.3684 14.6667 20.0002C14.6667 19.632 14.3683 19.3335 14.0001 19.3335H7.33341C6.96522 19.3335 6.66675 19.632 6.66675 20.0002C6.66675 20.3684 6.96522 20.6668 7.33341 20.6668Z" fill="#ED9C11"/>
<path d="M17.3334 24.6665H7.33341C6.96522 24.6665 6.66675 24.965 6.66675 25.3332C6.66675 25.7014 6.96522 25.9998 7.33341 25.9998H17.3334C17.7016 25.9998 18.0001 25.7014 18.0001 25.3332C18.0001 24.965 17.7016 24.6665 17.3334 24.6665Z" fill="#ED9C11"/>
<path d="M15.3334 30H7.33341C6.96522 30 6.66675 30.2985 6.66675 30.6667C6.66675 31.0349 6.96522 31.3333 7.33341 31.3333H15.3334C15.7016 31.3333 16.0001 31.0349 16.0001 30.6667C16.0001 30.2985 15.7016 30 15.3334 30Z" fill="#ED9C11"/>
<path d="M7.33341 23.3333H20.0001C20.3683 23.3333 20.6667 23.0349 20.6667 22.6667C20.6667 22.2985 20.3683 22 20.0001 22H7.33341C6.96522 22 6.66675 22.2985 6.66675 22.6667C6.66675 23.0349 6.96522 23.3333 7.33341 23.3333Z" fill="#ED9C11"/>
<path d="M7.33341 28.6668H11.3334C11.7016 28.6668 12.0001 28.3684 12.0001 28.0002C12.0001 27.632 11.7016 27.3335 11.3334 27.3335H7.33341C6.96522 27.3335 6.66675 27.632 6.66675 28.0002C6.66675 28.3684 6.96522 28.6668 7.33341 28.6668Z" fill="#ED9C11"/>
<path d="M10.6667 32.6665H7.33341C6.96522 32.6665 6.66675 32.965 6.66675 33.3332C6.66675 33.7014 6.96522 33.9998 7.33341 33.9998H10.6667C11.0349 33.9998 11.3334 33.7014 11.3334 33.3332C11.3334 32.965 11.0349 32.6665 10.6667 32.6665Z" fill="#ED9C11"/>
<path d="M16.6667 20.6668H18.6667C19.0349 20.6668 19.3333 20.3684 19.3333 20.0002C19.3333 19.632 19.0349 19.3335 18.6667 19.3335H16.6667C16.2985 19.3335 16 19.632 16 20.0002C16 20.3684 16.2985 20.6668 16.6667 20.6668Z" fill="#ED9C11"/>
<path d="M15.9999 27.3335H13.9999C13.6317 27.3335 13.3333 27.632 13.3333 28.0002C13.3333 28.3684 13.6317 28.6668 13.9999 28.6668H15.9999C16.3681 28.6668 16.6666 28.3684 16.6666 28.0002C16.6666 27.632 16.3681 27.3335 15.9999 27.3335Z" fill="#ED9C11"/>
</g>
<defs>
<clipPath id="clip0_887_5009">
<rect width="40" height="40" fill="white"/>
</clipPath>
</defs>
</svg>
