<svg width="37" height="42" viewBox="0 0 37 42" fill="none" xmlns="http://www.w3.org/2000/svg">
<path d="M36.6131 11.3431C36.6131 11.1679 36.6131 11.1679 36.6131 10.9927C36.6131 10.8175 36.438 10.8175 36.2628 10.6423L18.7445 0.131387C18.3942 -0.0437956 18.0438 -0.0437956 17.8686 0.131387L0.350365 10.6423C0.175182 10.6423 0.175182 10.8175 0 10.9927V11.3431V30.6131C0 30.9635 0.175182 31.1387 0.350365 31.3139L17.8686 41.8248C18.0438 41.8248 18.0438 42 18.219 42C18.3942 42 18.5693 42 18.5693 41.8248L36.0876 31.3139C36.438 31.1387 36.438 30.7883 36.438 30.6131L36.6131 11.3431ZM17.3431 39.5474L1.57664 30.0876V12.9197L17.3431 22.3796V39.5474ZM18.219 20.8029L2.45255 11.3431L18.219 1.88321L33.9854 11.3431L18.219 20.8029ZM34.8613 30.0876L19.0949 39.5474V22.3796L34.8613 12.9197V30.0876Z" fill="#ED9C11"/>
</svg>
