<svg width="40" height="40" viewBox="0 0 40 40" fill="none" xmlns="http://www.w3.org/2000/svg">
<g clip-path="url(#clip0_887_4997)">
<path d="M19.7834 35.0911C19.8785 35.146 19.9862 35.1748 20.0959 35.1748C20.2057 35.1748 20.3134 35.146 20.4084 35.0911L32.9745 27.8359C33.0695 27.7811 33.1484 27.7022 33.2033 27.6072C33.2582 27.5122 33.287 27.4044 33.287 27.2947V12.7847C33.287 12.675 33.2582 12.5672 33.2033 12.4722C33.1485 12.3771 33.0696 12.2982 32.9745 12.2434L20.4084 4.98836C20.3134 4.93351 20.2057 4.90463 20.0959 4.90463C19.9862 4.90463 19.8785 4.93351 19.7834 4.98836L7.21727 12.2434C7.12225 12.2982 7.04334 12.3771 6.98849 12.4722C6.93363 12.5672 6.90476 12.675 6.90477 12.7847V27.2948C6.90477 27.4045 6.93365 27.5123 6.98851 27.6073C7.04336 27.7023 7.12226 27.7812 7.21727 27.836L19.7834 35.0911ZM8.15477 13.8672L19.4709 20.4006V33.4673L8.15477 26.9339V13.8672ZM20.7209 33.4673V20.4006L32.037 13.8672V26.9339L20.7209 33.4673ZM20.0959 6.25133L31.412 12.7846L20.0959 19.318L8.77977 12.7846L20.0959 6.25133ZM3.4175 31.1875C-1.93312 23.2752 -0.906715 12.6225 5.85782 5.85781C9.43034 2.28521 14.2227 0.197146 19.2717 0.0132621C24.3207 -0.170622 29.2522 1.5633 33.0752 4.86656V2.39266C33.0752 2.2269 33.141 2.06793 33.2582 1.95072C33.3754 1.83351 33.5344 1.76766 33.7002 1.76766C33.8659 1.76766 34.0249 1.83351 34.1421 1.95072C34.2593 2.06793 34.3252 2.2269 34.3252 2.39266V6.29977C34.3252 6.46553 34.2593 6.6245 34.1421 6.74171C34.0249 6.85892 33.8659 6.92477 33.7002 6.92477H29.7931C29.6274 6.92477 29.4684 6.85892 29.3512 6.74171C29.234 6.6245 29.1681 6.46553 29.1681 6.29977C29.1681 6.13401 29.234 5.97504 29.3512 5.85783C29.4684 5.74062 29.6274 5.67477 29.7931 5.67477H32.0991C24.6748 -0.621561 13.7041 -0.220623 6.74219 6.74172C0.399769 13.0837 -0.562497 23.0703 4.45313 30.4875C4.49909 30.5555 4.53121 30.6319 4.54765 30.7123C4.56409 30.7927 4.56453 30.8756 4.54895 30.9562C4.53337 31.0367 4.50207 31.1135 4.45683 31.182C4.4116 31.2504 4.35332 31.3094 4.28532 31.3553C4.21732 31.4013 4.14093 31.4334 4.06051 31.4498C3.9801 31.4663 3.89724 31.4667 3.81665 31.4511C3.73607 31.4356 3.65934 31.4043 3.59086 31.359C3.52237 31.3138 3.46347 31.2555 3.4175 31.1875ZM35.304 9.16164C35.2555 9.09477 35.2208 9.01896 35.2018 8.93858C35.1828 8.8582 35.1799 8.77485 35.1933 8.69336C35.2067 8.61186 35.2361 8.53382 35.2799 8.46377C35.3236 8.39371 35.3808 8.33301 35.4481 8.2852C35.5155 8.23738 35.5916 8.20338 35.6722 8.18517C35.7528 8.16696 35.8361 8.1649 35.9175 8.1791C35.9989 8.19331 36.0766 8.2235 36.1462 8.26794C36.2158 8.31237 36.276 8.37016 36.3231 8.43797C39.1707 12.4589 40.434 17.3894 39.8708 22.2843C39.3076 27.1791 36.9575 31.6939 33.2711 34.963C29.5847 38.2322 24.8214 40.0256 19.8943 39.9996C14.9672 39.9736 10.2231 38.1299 6.57141 34.822V37.2448C6.57141 37.4105 6.50556 37.5695 6.38835 37.6867C6.27114 37.8039 6.11217 37.8698 5.94641 37.8698C5.78065 37.8698 5.62168 37.8039 5.50447 37.6867C5.38726 37.5695 5.32141 37.4105 5.32141 37.2448V33.3377C5.32141 33.1719 5.38726 33.0129 5.50447 32.8957C5.62168 32.7785 5.78065 32.7127 5.94641 32.7127H9.85352C10.0193 32.7127 10.1783 32.7785 10.2955 32.8957C10.4127 33.0129 10.4785 33.1719 10.4785 33.3377C10.4785 33.5034 10.4127 33.6624 10.2955 33.7796C10.1783 33.8968 10.0193 33.9627 9.85352 33.9627H7.48633C10.9198 37.0393 15.3664 38.7433 19.9767 38.7491C24.5869 38.7549 29.0378 37.0621 32.479 33.9941C35.9202 30.9261 38.1106 26.6979 38.6318 22.1172C39.153 17.5365 37.9684 12.9243 35.3043 9.16164H35.304Z" fill="#ED9C11" stroke="#ED9C11" stroke-width="0.25"/>
</g>
<defs>
<clipPath id="clip0_887_4997">
<rect width="40" height="40" fill="white"/>
</clipPath>
</defs>
</svg>
