<svg width="40" height="40" viewBox="0 0 40 40" fill="none" xmlns="http://www.w3.org/2000/svg">
<g clip-path="url(#clip0_572_14962)">
<path d="M35.3335 15.3333C35.0281 15.3336 34.7235 15.364 34.4241 15.424L33.0455 11.5147C33.4855 11.2574 33.8607 10.9026 34.1422 10.4776C34.4237 10.0526 34.6039 9.56869 34.6691 9.06311C34.7342 8.55753 34.6826 8.04375 34.518 7.56126C34.3535 7.07878 34.0806 6.64046 33.7201 6.28001C33.3596 5.91955 32.9213 5.64657 32.4388 5.48206C31.9564 5.31754 31.4426 5.26588 30.937 5.33104C30.4314 5.3962 29.9475 5.57645 29.5225 5.85792C29.0975 6.13939 28.7427 6.51459 28.4855 6.95465L24.5761 5.57599C24.7116 4.89894 24.6951 4.20027 24.5279 3.53037C24.3606 2.86046 24.0468 2.23601 23.6091 1.70203C23.1714 1.16806 22.6206 0.737873 21.9965 0.442492C21.3724 0.147111 20.6906 -0.00610352 20.0001 -0.00610352C19.3097 -0.00610352 18.6278 0.147111 18.0037 0.442492C17.3796 0.737873 16.8288 1.16806 16.3911 1.70203C15.9534 2.23601 15.6396 2.86046 15.4724 3.53037C15.3052 4.20027 15.2887 4.89894 15.4241 5.57599L11.5148 6.95465C11.0982 6.27364 10.4491 5.76651 9.68759 5.52707C8.92603 5.28762 8.10352 5.33207 7.3722 5.65219C6.64088 5.9723 6.05023 6.54643 5.70949 7.26837C5.36875 7.99031 5.30097 8.81122 5.51871 9.57927C5.73644 10.3473 6.22495 11.0105 6.89387 11.4462C7.56279 11.882 8.36687 12.0607 9.15739 11.9494C9.9479 11.8381 10.6714 11.4443 11.194 10.8408C11.7166 10.2373 12.0029 9.46496 12.0001 8.66665C11.9956 8.51473 11.9809 8.36328 11.9561 8.21332L15.8701 6.83265C16.2645 7.58688 16.858 8.21869 17.586 8.65955C18.3141 9.10041 19.149 9.33348 20.0001 9.33348C20.8513 9.33348 21.6861 9.10041 22.4142 8.65955C23.1423 8.21869 23.7357 7.58688 24.1301 6.83265L28.0441 8.21332C28.0194 8.36328 28.0047 8.51473 28.0001 8.66665C28.0001 9.55071 28.3513 10.3986 28.9764 11.0237C29.6015 11.6488 30.4494 12 31.3335 12C31.4854 11.9954 31.6368 11.9807 31.7868 11.956L33.1674 15.87C32.4132 16.2644 31.7814 16.8579 31.3406 17.5859C30.8997 18.314 30.6666 19.1489 30.6666 20C30.6666 20.8511 30.8997 21.686 31.3406 22.4141C31.7814 23.1421 32.4132 23.7356 33.1674 24.13L31.7868 28.044C31.6368 28.0192 31.4854 28.0045 31.3335 28C30.6797 27.9987 30.0401 28.191 29.4955 28.5527L23.7334 22.7893C24.1588 22.2206 24.4485 21.5622 24.5806 20.8644C24.7126 20.1666 24.6835 19.4479 24.4954 18.7631C24.3073 18.0783 23.9652 17.4455 23.4953 16.9131C23.0253 16.3806 22.4399 15.9626 21.7838 15.6909C21.1276 15.4192 20.4181 15.3011 19.7093 15.3454C19.0005 15.3898 18.3112 15.5955 17.6941 15.9469C17.0769 16.2983 16.5482 16.7861 16.1484 17.373C15.7485 17.9599 15.488 18.6304 15.3868 19.3333H9.28012C9.14675 18.4092 8.73924 17.5463 8.11026 16.8562C7.48127 16.1662 6.65975 15.6806 5.75189 15.4624C4.84404 15.2442 3.8916 15.3034 3.01771 15.6322C2.14383 15.9611 1.38868 16.5445 0.849908 17.3071C0.311133 18.0697 0.0135024 18.9763 -0.00450299 19.9099C-0.0225084 20.8434 0.239939 21.7609 0.748908 22.5437C1.25788 23.3265 1.98996 23.9386 2.85052 24.3009C3.71107 24.6632 4.66052 24.759 5.57612 24.576L6.95478 28.4853C6.51472 28.7426 6.13952 29.0974 5.85805 29.5224C5.57657 29.9474 5.39633 30.4313 5.33117 30.9369C5.26601 31.4424 5.31767 31.9562 5.48219 32.4387C5.6467 32.9212 5.91968 33.3595 6.28014 33.72C6.64059 34.0804 7.07891 34.3534 7.56139 34.5179C8.04388 34.6824 8.55766 34.7341 9.06324 34.6689C9.56882 34.6038 10.0527 34.4235 10.4777 34.1421C10.9027 33.8606 11.2575 33.4854 11.5148 33.0453L15.4241 34.424C15.1915 35.5835 15.4067 36.7882 16.0265 37.7954C16.6463 38.8026 17.6247 39.5377 18.7646 39.8526C19.9046 40.1675 21.1215 40.0389 22.1704 39.4926C23.2194 38.9464 24.0225 38.023 24.418 36.9085C24.8136 35.794 24.7722 34.571 24.3023 33.4857C23.8324 32.4004 22.9689 31.5334 21.8854 31.0592C20.802 30.585 19.5792 30.5388 18.4631 30.93C17.347 31.3211 16.4205 32.1205 15.8701 33.1673L11.9561 31.7867C11.9809 31.6367 11.9956 31.4852 12.0001 31.3333C12.0001 30.4493 11.6489 29.6014 11.0238 28.9763C10.3987 28.3512 9.55084 28 8.66678 28C8.51486 28.0045 8.36341 28.0192 8.21345 28.044L6.83278 24.1333C7.48533 23.7896 8.04725 23.2963 8.47261 22.6938C8.89796 22.0913 9.17468 21.3966 9.28012 20.6667H15.3868C15.5003 21.4673 15.8205 22.2246 16.3159 22.8637C16.8113 23.5029 17.4647 24.0018 18.2118 24.3114C18.9588 24.621 19.7737 24.7305 20.576 24.6291C21.3782 24.5278 22.1402 24.219 22.7868 23.7333L28.5501 29.4967C28.1693 30.0557 27.9656 30.7165 27.9653 31.3929C27.965 32.0694 28.1682 32.7302 28.5485 33.2897C28.9288 33.8491 29.4685 34.2812 30.0976 34.5298C30.7267 34.7784 31.4161 34.832 32.0761 34.6836C32.736 34.5352 33.3361 34.1918 33.7983 33.6978C34.2605 33.2039 34.5634 32.5824 34.6677 31.914C34.7719 31.2457 34.6727 30.5614 34.3829 29.9501C34.0932 29.3389 33.6262 28.829 33.0428 28.4867L34.4215 24.5773C35.0602 24.7041 35.7184 24.6958 36.3537 24.553C36.9891 24.4102 37.5875 24.136 38.1105 23.748C38.6335 23.36 39.0695 22.8669 39.3905 22.3003C39.7115 21.7337 39.9104 21.1062 39.9743 20.4582C40.0382 19.8101 39.9658 19.1559 39.7618 18.5375C39.5577 17.9191 39.2264 17.3502 38.7893 16.8675C38.3522 16.3848 37.8189 15.999 37.2237 15.7347C36.6285 15.4705 35.9846 15.3338 35.3335 15.3333ZM10.0808 10.0807C9.79517 10.3442 9.44007 10.5205 9.05745 10.5887C8.67484 10.6568 8.28071 10.614 7.92164 10.4653C7.56258 10.3166 7.2536 10.0682 7.03123 9.74945C6.80886 9.43072 6.6824 9.05498 6.66678 8.66665C6.66678 8.13622 6.8775 7.62751 7.25257 7.25244C7.62764 6.87737 8.13635 6.66665 8.66678 6.66665C9.19722 6.66665 9.70592 6.87737 10.081 7.25244C10.4561 7.62751 10.6668 8.13622 10.6668 8.66665C10.6676 8.92941 10.6162 9.1897 10.5156 9.43244C10.415 9.67517 10.2672 9.89551 10.0808 10.0807ZM20.0001 7.99999C19.3408 7.99999 18.6964 7.80449 18.1482 7.43822C17.6001 7.07195 17.1728 6.55135 16.9205 5.94227C16.6682 5.33318 16.6022 4.66296 16.7308 4.01635C16.8595 3.36975 17.1769 2.77581 17.6431 2.30963C18.1093 1.84346 18.7032 1.52599 19.3498 1.39737C19.9964 1.26875 20.6666 1.33476 21.2757 1.58706C21.8848 1.83935 22.4054 2.26659 22.7717 2.81475C23.138 3.36292 23.3335 4.00738 23.3335 4.66665C23.3324 5.55038 22.9809 6.39761 22.356 7.02251C21.7311 7.6474 20.8838 7.99893 20.0001 7.99999ZM29.9195 10.0807C29.6397 9.80097 29.4491 9.44461 29.3719 9.05663C29.2947 8.66865 29.3343 8.26649 29.4856 7.901C29.637 7.53551 29.8933 7.22312 30.2222 7.00333C30.5512 6.78354 30.9379 6.66623 31.3335 6.66623C31.729 6.66623 32.1157 6.78354 32.4447 7.00333C32.7736 7.22312 33.0299 7.53551 33.1813 7.901C33.3326 8.26649 33.3722 8.66865 33.295 9.05663C33.2178 9.44461 33.0272 9.80097 32.7475 10.0807C32.3678 10.4469 31.8609 10.6515 31.3335 10.6515C30.806 10.6515 30.2991 10.4469 29.9195 10.0807ZM20.0001 32C20.6594 32 21.3039 32.1955 21.852 32.5618C22.4002 32.928 22.8274 33.4486 23.0797 34.0577C23.332 34.6668 23.398 35.337 23.2694 35.9836C23.1408 36.6302 22.8233 37.2242 22.3571 37.6903C21.891 38.1565 21.297 38.474 20.6504 38.6026C20.0038 38.7312 19.3336 38.6652 18.7245 38.4129C18.1154 38.1606 17.5948 37.7334 17.2286 37.1852C16.8623 36.6371 16.6668 35.9926 16.6668 35.3333C16.6678 34.4496 17.0194 33.6024 17.6443 32.9775C18.2692 32.3526 19.1164 32.001 20.0001 32ZM10.0715 29.9293C10.4451 30.3031 10.655 30.81 10.655 31.3386C10.6549 31.8671 10.4449 32.374 10.0711 32.7477C9.69734 33.1213 9.19042 33.3312 8.66188 33.3312C8.13334 33.3311 7.62647 33.1211 7.25278 32.7473C6.87909 32.3735 6.66919 31.8666 6.66925 31.3381C6.66932 30.8095 6.87934 30.3027 7.25312 29.929C7.6269 29.5553 8.13381 29.3454 8.66235 29.3455C9.19089 29.3455 9.69776 29.5555 10.0715 29.9293ZM4.66678 23.3333C4.00751 23.3333 3.36305 23.1378 2.81488 22.7716C2.26672 22.4053 1.83948 21.8847 1.58718 21.2756C1.33489 20.6665 1.26888 19.9963 1.3975 19.3497C1.52612 18.7031 1.84358 18.1091 2.30976 17.643C2.77593 17.1768 3.36988 16.8593 4.01648 16.7307C4.66308 16.6021 5.33331 16.6681 5.94239 16.9204C6.55148 17.1727 7.07208 17.5999 7.43835 18.1481C7.80462 18.6962 8.00012 19.3407 8.00012 20C7.99906 20.8837 7.64753 21.7309 7.02264 22.3558C6.39774 22.9807 5.55051 23.3323 4.66678 23.3333ZM16.6668 20C16.6668 19.3407 16.8623 18.6962 17.2286 18.1481C17.5948 17.5999 18.1154 17.1727 18.7245 16.9204C19.3336 16.6681 20.0038 16.6021 20.6504 16.7307C21.297 16.8593 21.891 17.1768 22.3571 17.643C22.8233 18.1091 23.1408 18.7031 23.2694 19.3497C23.398 19.9963 23.332 20.6665 23.0797 21.2756C22.8274 21.8847 22.4002 22.4053 21.852 22.7716C21.3039 23.1378 20.6594 23.3333 20.0001 23.3333C19.1164 23.3323 18.2692 22.9807 17.6443 22.3558C17.0194 21.7309 16.6678 20.8837 16.6668 20ZM32.7475 32.7473C32.3665 33.1109 31.8601 33.3138 31.3335 33.3138C30.8068 33.3138 30.3004 33.1109 29.9195 32.7473C29.5498 32.3695 29.3428 31.8619 29.3428 31.3333C29.3428 30.8047 29.5498 30.2972 29.9195 29.9193C30.2967 29.555 30.8019 29.3534 31.3263 29.358C31.8506 29.3625 32.3523 29.5729 32.7231 29.9437C33.0939 30.3145 33.3042 30.8161 33.3088 31.3405C33.3134 31.8649 33.1118 32.3701 32.7475 32.7473ZM35.3335 23.3333C34.6742 23.3333 34.0297 23.1378 33.4816 22.7716C32.9334 22.4053 32.5061 21.8847 32.2539 21.2756C32.0016 20.6665 31.9355 19.9963 32.0642 19.3497C32.1928 18.7031 32.5103 18.1091 32.9764 17.643C33.4426 17.1768 34.0365 16.8593 34.6832 16.7307C35.3298 16.6021 36 16.6681 36.6091 16.9204C37.2182 17.1727 37.7387 17.5999 38.105 18.1481C38.4713 18.6962 38.6668 19.3407 38.6668 20C38.6657 20.8837 38.3142 21.7309 37.6893 22.3558C37.0644 22.9807 36.2172 23.3323 35.3335 23.3333Z" fill="#ED9C11"/>
</g>
<defs>
<clipPath id="clip0_572_14962">
<rect width="40" height="40" fill="white"/>
</clipPath>
</defs>
</svg>
