<svg width="49" height="48" viewBox="0 0 49 48" fill="none" xmlns="http://www.w3.org/2000/svg">
<g clip-path="url(#clip0_572_15048)">
<path d="M47.5835 24C47.5835 36.8406 37.1741 47.25 24.3335 47.25C11.4929 47.25 1.0835 36.8406 1.0835 24C1.0835 11.1594 11.4929 0.75 24.3335 0.75C37.1741 0.75 47.5835 11.1594 47.5835 24Z" stroke="#ED9C11" stroke-width="1.5"/>
<path fill-rule="evenodd" clip-rule="evenodd" d="M26.0999 21.6192L25.4951 24.864L31.2935 25.68L30.8999 27.2184L25.2047 26.4C24.7991 27.7128 24.5879 29.1456 24.0887 30.3408C23.5895 31.536 23.0111 33.1896 22.4471 34.5048C22.0821 35.3562 21.5075 36.1013 20.7769 36.6707C20.0463 37.2402 19.1834 37.6155 18.2687 37.7616C17.7138 37.8886 17.1384 37.8981 16.5795 37.7894C16.0207 37.6807 15.4908 37.4562 15.0239 37.1304C14.8202 37.006 14.6543 36.8285 14.5439 36.6168C14.4201 36.3736 14.3918 36.0927 14.4647 35.8296C14.5066 35.6764 14.5722 35.5306 14.6591 35.3976C14.7344 35.2891 14.8366 35.202 14.9556 35.1448C15.0747 35.0875 15.2066 35.0622 15.3383 35.0712C15.405 35.0741 15.4715 35.0805 15.5375 35.0904C15.7819 35.1308 16.0039 35.2567 16.1639 35.4456C16.3943 35.7113 16.5917 36.0038 16.7519 36.3168C16.8529 36.4816 16.9854 36.6248 17.1419 36.7381C17.2984 36.8515 17.4757 36.9328 17.6637 36.9774C17.8518 37.022 18.0467 37.029 18.2375 36.9981C18.4282 36.9671 18.6109 36.8987 18.7751 36.7968C18.8547 36.7492 18.9288 36.6929 18.9959 36.6288C19.8524 35.7956 20.4507 34.7332 20.7191 33.5688C21.3023 31.26 21.8735 29.0448 22.3679 26.7552C22.4235 26.49 22.4517 26.2198 22.4519 25.9488L17.0519 25.1352L17.2631 23.6112L22.8599 24.4128L23.5799 21.2592L17.7575 20.4L17.9687 18.744L23.9687 19.56C24.1295 19.056 24.2279 18.6312 24.3743 18.2112C24.4607 17.9712 24.5255 17.7144 24.5879 17.4624C25.0098 15.7546 25.7297 14.1346 26.7143 12.6768C27.2135 11.8669 27.9197 11.2048 28.7601 10.7589C29.6005 10.313 30.5446 10.0993 31.4951 10.14C31.9504 10.1224 32.4041 10.2037 32.825 10.3781C33.246 10.5525 33.6241 10.816 33.9335 11.1504C34.0847 11.2855 34.1903 11.4641 34.2359 11.6616C34.2757 11.9567 34.2376 12.257 34.1255 12.5328C34.0743 12.6694 33.9866 12.7893 33.8719 12.8794C33.7572 12.9696 33.62 13.0265 33.4751 13.044C33.3133 13.0575 33.1506 13.0308 33.0016 12.9664C32.8525 12.9019 32.7217 12.8016 32.6207 12.6744C32.3519 12.4056 32.1575 12.1368 31.9007 11.8704C31.8377 11.7998 31.7792 11.7253 31.7255 11.6472C31.6045 11.4779 31.4467 11.3383 31.264 11.2387C31.0813 11.1391 30.8784 11.0822 30.6705 11.0723C30.4627 11.0623 30.2553 11.0996 30.0639 11.1813C29.8725 11.263 29.7021 11.387 29.5655 11.544C29.0127 12.1063 28.5678 12.7652 28.2527 13.488C27.5327 15.6288 27.0311 17.8632 26.3327 20.0568L31.9295 20.8584L31.5215 22.3944L26.1239 21.5808" fill="#ED9C11"/>
</g>
<defs>
<clipPath id="clip0_572_15048">
<rect width="48" height="48" fill="white" transform="translate(0.333496)"/>
</clipPath>
</defs>
</svg>
