<svg width="40" height="40" viewBox="0 0 40 40" fill="none" xmlns="http://www.w3.org/2000/svg">
<g clip-path="url(#clip0_887_4974)">
<path d="M34.1421 5.85789C30.3646 2.08039 25.3422 0 20 0C14.6578 0 9.63539 2.08039 5.85789 5.85789C2.08039 9.63539 0 14.6578 0 20C0 25.3422 2.08039 30.3646 5.85789 34.1421C9.63539 37.9196 14.6578 40 20 40C25.3422 40 30.3646 37.9196 34.1421 34.1421C37.9196 30.3646 40 25.3422 40 20C40 14.6578 37.9196 9.63539 34.1421 5.85789ZM33.033 33.033C29.5517 36.5142 24.9232 38.4314 20 38.4314C15.0768 38.4314 10.4483 36.5142 6.96703 33.033C3.48578 29.5517 1.56859 24.9232 1.56859 20C1.56859 15.0768 3.48578 10.4483 6.96703 6.96703C10.4483 3.48578 15.0768 1.56859 20 1.56859C24.9232 1.56859 29.5517 3.48578 33.033 6.96703C36.5142 10.4483 38.4314 15.0768 38.4314 20C38.4314 24.9232 36.5141 29.5517 33.033 33.033Z" fill="#ED9C11"/>
<path d="M20 5.61426C12.0679 5.61426 5.6145 12.0676 5.6145 19.9998C5.6145 20.433 5.96567 20.7841 6.3988 20.7841C6.83192 20.7841 7.18317 20.433 7.18317 19.9998C7.18317 12.9325 12.9329 7.18293 20 7.18293C20.4333 7.18293 20.7843 6.83176 20.7843 6.39855C20.7843 5.96535 20.4332 5.61426 20 5.61426Z" fill="#ED9C11"/>
<path d="M33.6013 19.2158C33.1681 19.2158 32.817 19.567 32.817 20.0001C32.817 27.0674 27.0673 32.817 20.0001 32.817C19.5669 32.817 19.2158 33.1682 19.2158 33.6013C19.2158 34.0345 19.567 34.3856 20.0001 34.3856C27.9323 34.3856 34.3857 27.9323 34.3857 20C34.3856 19.5669 34.0344 19.2158 33.6013 19.2158Z" fill="#ED9C11"/>
<path d="M21.1295 19.2156H20.2766H19.7233H18.8705C17.7776 19.2156 16.8884 18.3264 16.8884 17.2335V15.9196C16.8884 14.8267 17.7776 13.9375 18.8705 13.9375H21.3734C22.3319 13.9375 23.1115 14.7172 23.1115 15.6756C23.1115 16.1088 23.4627 16.4599 23.8958 16.4599C24.329 16.4599 24.6801 16.1088 24.6801 15.6756C24.6801 13.8523 23.1967 12.3689 21.3734 12.3689H20.7843V10.4215C20.7843 9.9883 20.4331 9.63721 20 9.63721C19.5668 9.63721 19.2157 9.98838 19.2157 10.4215V12.3689H18.8705C16.9126 12.3689 15.3198 13.9617 15.3198 15.9196V17.2335C15.3198 19.1913 16.9126 20.7842 18.8705 20.7842H19.7233H20.2766H21.1295C22.2224 20.7842 23.1115 21.6733 23.1115 22.7662V24.0802C23.1115 25.1731 22.2224 26.0622 21.1295 26.0622H18.6265C17.6681 26.0622 16.8884 25.2825 16.8884 24.3241C16.8884 23.8909 16.5372 23.5398 16.1041 23.5398C15.671 23.5398 15.3198 23.891 15.3198 24.3241C15.3198 26.1474 16.8033 27.6308 18.6265 27.6308H19.2157V29.5782C19.2157 30.0114 19.5669 30.3625 20 30.3625C20.4332 30.3625 20.7843 30.0113 20.7843 29.5782V27.6308H21.1295C23.0873 27.6308 24.6801 26.038 24.6801 24.0802V22.7662C24.6801 20.8084 23.0873 19.2156 21.1295 19.2156Z" fill="#ED9C11"/>
<path d="M22.7681 7.66408C23.2048 7.66408 23.5589 7.31004 23.5589 6.8733C23.5589 6.43656 23.2048 6.08252 22.7681 6.08252C22.3313 6.08252 21.9773 6.43656 21.9773 6.8733C21.9773 7.31004 22.3313 7.66408 22.7681 7.66408Z" fill="#ED9C11"/>
<path d="M17.2319 33.9971C17.6687 33.9971 18.0227 33.643 18.0227 33.2063C18.0227 32.7696 17.6687 32.4155 17.2319 32.4155C16.7952 32.4155 16.4412 32.7696 16.4412 33.2063C16.4412 33.643 16.7952 33.9971 17.2319 33.9971Z" fill="#ED9C11"/>
</g>
<defs>
<clipPath id="clip0_887_4974">
<rect width="40" height="40" fill="white"/>
</clipPath>
</defs>
</svg>
