<svg width="48" height="48" viewBox="0 0 48 48" fill="none" xmlns="http://www.w3.org/2000/svg">
<path d="M46.125 7.64999L35.25 1.34999C35.025 1.19999 34.725 1.19999 34.5 1.34999L24 7.42499L13.5 1.34999C13.275 1.19999 12.975 1.19999 12.75 1.34999L1.875 7.64999C1.65 7.72499 1.5 8.02499 1.5 8.24999V20.775C1.5 21.075 1.65 21.3 1.875 21.45L12.375 27.525V39.75C12.375 40.05 12.525 40.275 12.75 40.425L23.625 46.725C23.775 46.8 23.85 46.8 24 46.8C24.15 46.8 24.225 46.8 24.375 46.725L35.25 40.35C35.475 40.2 35.625 39.975 35.625 39.675V27.525L46.125 21.45C46.35 21.3 46.5 21.075 46.5 20.775V8.24999C46.5 8.02499 46.35 7.72499 46.125 7.64999ZM3 8.69999L13.125 2.84999L23.25 8.69999V20.4L13.125 26.25L3 20.4V8.69999ZM34.125 39.3L24 45.15L13.875 39.3V27.6L24 21.75L34.125 27.6V39.3ZM45 20.4L34.875 26.25L24.75 20.4V8.69999L34.875 2.84999L45 8.69999V20.4Z" fill="#ED9C11" stroke="#ED9C11" stroke-width="0.25"/>
<path d="M34.5001 5.92498L27.6001 9.89998C27.3751 10.05 27.2251 10.275 27.2251 10.575V18.525C27.2251 18.975 27.5251 19.275 27.9751 19.275C28.4251 19.275 28.7251 18.975 28.7251 18.525V10.95L35.2501 7.19998C35.6251 6.97498 35.7001 6.52498 35.5501 6.14998C35.3251 5.84998 34.8751 5.69998 34.5001 5.92498Z" fill="#ED9C11" stroke="#ED9C11" stroke-width="0.25"/>
<path d="M13.8001 6.14996C13.5751 5.77496 13.1251 5.69996 12.7501 5.84996L5.8501 9.82496C5.6251 9.97496 5.4751 10.2 5.4751 10.5V18.45C5.4751 18.9 5.7751 19.2 6.2251 19.2C6.6751 19.2 6.9751 18.9 6.9751 18.45V10.95L13.5001 7.19996C13.8751 6.97496 14.0251 6.52496 13.8001 6.14996Z" fill="#ED9C11" stroke="#ED9C11" stroke-width="0.25"/>
<path d="M23.6251 24.825L16.7251 28.8C16.5001 28.95 16.3501 29.175 16.3501 29.475V37.425C16.3501 37.875 16.6501 38.175 17.1001 38.175C17.5501 38.175 17.8501 37.875 17.8501 37.425V29.925L24.3751 26.175C24.7501 25.95 24.8251 25.5 24.6751 25.125C24.4501 24.75 24.0001 24.6 23.6251 24.825Z" fill="#ED9C11" stroke="#ED9C11" stroke-width="0.25"/>
</svg>
