<?xml version="1.0" standalone="no"?>
<!DOCTYPE svg PUBLIC "-//W3C//DTD SVG 20010904//EN"
 "http://www.w3.org/TR/2001/REC-SVG-20010904/DTD/svg10.dtd">
<svg version="1.0" xmlns="http://www.w3.org/2000/svg"
 width="700.000000pt" height="700.000000pt" viewBox="0 0 700.000000 700.000000"
 preserveAspectRatio="xMidYMid meet">
<metadata>
Created by potrace 1.14, written by Peter Selinger 2001-2017
</metadata>
<g transform="translate(0.000000,700.000000) scale(0.100000,-0.100000)"
fill="#000000" stroke="none">
<path d="M3400 6834 c-217 -124 -713 -406 -745 -424 -22 -12 -69 -39 -105 -60
-36 -20 -85 -49 -110 -62 -66 -38 -248 -142 -300 -172 -25 -14 -70 -40 -100
-56 -30 -17 -62 -35 -70 -40 -13 -9 -258 -148 -400 -228 -25 -14 -121 -69
-215 -122 -93 -54 -187 -107 -207 -119 -61 -34 -97 -54 -213 -121 -60 -35
-139 -80 -175 -100 -36 -20 -99 -56 -140 -79 l-75 -42 0 -1724 0 -1723 518
-294 c286 -161 542 -306 570 -321 29 -15 72 -40 97 -55 25 -14 59 -33 75 -42
17 -9 47 -26 68 -38 48 -28 41 -24 457 -259 195 -110 524 -296 730 -413 206
-117 380 -213 385 -213 6 1 44 20 85 43 41 23 104 58 140 77 36 20 88 48 115
63 28 15 73 40 100 55 78 43 445 244 500 275 28 15 412 227 855 470 443 243
830 456 860 473 30 17 84 47 120 66 36 20 97 53 135 74 l70 39 -1 1716 c-1
944 -2 1722 -3 1728 0 7 -9 14 -18 17 -10 3 -29 13 -43 21 -14 9 -99 56 -190
106 -91 50 -172 95 -180 100 -8 5 -31 18 -50 28 -19 11 -114 63 -210 117 -236
131 -241 134 -600 333 -173 96 -337 187 -365 202 -27 15 -79 44 -115 65 -36
20 -74 41 -85 46 -11 5 -33 17 -50 27 -25 15 -231 130 -470 262 -27 15 -122
68 -210 117 -88 49 -167 92 -175 96 -8 4 -24 13 -35 20 -41 25 -173 97 -176
97 -2 -1 -24 -12 -49 -26z m112 -580 c10 -3 62 -30 115 -61 54 -30 123 -69
153 -86 30 -16 125 -69 210 -117 85 -48 175 -98 200 -112 25 -14 61 -34 80
-45 19 -11 62 -35 95 -53 33 -18 89 -50 125 -70 68 -39 94 -54 195 -110 33
-18 132 -74 220 -123 88 -50 180 -101 205 -115 57 -31 591 -330 687 -385 85
-48 103 -75 104 -163 1 -51 -16 -113 -39 -140 -14 -18 -601 -354 -617 -354 -3
0 -18 -8 -33 -19 -15 -10 -247 -141 -517 -291 -694 -386 -994 -554 -1037 -578
-67 -38 -145 -55 -225 -49 -72 5 -130 28 -263 104 -19 11 -195 111 -390 223
-195 112 -368 211 -385 220 -163 92 -649 369 -755 430 -156 88 -230 130 -233
130 -1 0 -2 -495 -2 -1100 0 -716 4 -1102 10 -1108 8 -8 451 -260 680 -387 28
-15 194 -108 370 -208 176 -99 340 -191 365 -205 25 -13 59 -32 75 -42 17 -10
50 -29 75 -42 25 -14 142 -80 262 -147 l216 -122 119 60 c170 87 268 139 638
341 88 48 187 102 220 120 68 36 82 44 360 197 110 61 232 127 270 148 39 21
84 46 100 55 17 10 59 34 95 52 36 19 81 44 100 55 19 11 71 39 115 63 44 24
82 45 85 47 7 6 6 1233 0 1233 -19 0 -101 95 -126 145 -25 52 -29 71 -29 145
0 71 4 94 27 142 120 256 470 272 609 28 86 -150 44 -348 -94 -445 l-22 -15
-1 -674 0 -673 -25 -49 c-27 -55 -87 -100 -266 -197 -54 -30 -118 -66 -143
-79 -25 -14 -362 -200 -750 -413 -388 -213 -723 -397 -745 -410 -22 -12 -66
-36 -97 -53 -102 -56 -172 -95 -233 -129 -33 -18 -89 -47 -124 -64 -97 -47
-101 -46 -401 123 -25 14 -169 95 -320 180 -151 85 -295 166 -320 180 -25 14
-69 39 -98 57 -29 17 -55 31 -58 31 -2 0 -21 10 -42 23 -20 13 -62 37 -92 54
-71 39 -124 68 -300 168 -80 45 -165 93 -190 107 -25 14 -119 67 -210 118 -91
52 -212 120 -270 153 -126 70 -137 79 -163 137 -20 43 -21 65 -23 515 -6 1117
-5 2212 2 2230 30 79 104 135 177 135 78 0 29 26 1522 -825 99 -57 198 -113
220 -125 22 -12 45 -26 50 -30 6 -4 35 -21 65 -37 30 -16 119 -66 197 -111 78
-45 145 -82 148 -82 5 0 264 138 320 171 17 10 57 32 90 50 33 17 78 41 100
54 22 12 72 40 110 60 39 21 158 86 265 145 107 59 227 124 265 145 39 21 93
50 120 65 28 15 77 42 110 60 33 18 103 56 155 85 136 75 175 96 265 145 144
77 138 66 61 111 -37 21 -69 39 -72 39 -2 0 -95 51 -206 113 -112 63 -210 117
-218 121 -8 4 -24 12 -35 19 -11 7 -56 32 -100 56 -44 24 -163 90 -265 146
-102 56 -297 164 -435 240 -137 76 -305 169 -372 206 -67 38 -128 69 -134 69
-7 0 -74 -34 -148 -77 -75 -42 -150 -84 -168 -94 -17 -10 -50 -29 -72 -43 -22
-15 -43 -26 -45 -26 -3 0 -31 -15 -63 -34 -32 -19 -81 -47 -109 -62 -28 -16
-125 -72 -216 -124 l-166 -94 -4 -46 c-11 -107 -94 -220 -198 -269 -47 -22
-69 -26 -145 -26 -80 0 -97 3 -148 29 -235 119 -258 446 -42 594 82 55 209 72
303 39 l44 -15 186 107 c103 59 270 156 372 216 102 59 205 119 230 133 25 14
103 59 173 100 170 99 197 108 269 86z"/>
</g>
</svg>
