<svg width="488" height="364" viewBox="0 0 488 364" fill="none" xmlns="http://www.w3.org/2000/svg">
<path d="M69.6365 311.659L66.9513 305.902C66.4831 306.068 65.9796 306.148 65.4479 306.136C63.9123 306.103 62.4932 305.3 61.5893 304.106C61.1604 304.277 60.3212 304.813 59.7818 306.467C59.701 306.714 59.4271 306.828 59.1695 306.723C58.9119 306.617 58.7688 306.332 58.8485 306.085C59.4483 304.245 60.4288 303.524 61.0623 303.241C60.8115 302.72 60.6482 302.155 60.6006 301.565C60.5531 300.975 60.6256 300.415 60.793 299.903C60.1121 299.592 59.0117 298.826 58.1119 296.953C57.9909 296.701 58.0895 296.422 58.3309 296.327C58.5724 296.232 58.8662 296.359 58.9867 296.61C59.7952 298.293 60.7236 298.868 61.1817 299.058C61.8963 297.9 63.1906 297.156 64.7262 297.189C65.2574 297.201 65.7754 297.302 66.2727 297.49L68.0368 291.829C68.4395 290.536 69.485 289.609 70.834 289.348C72.1824 289.087 73.6295 289.532 74.7046 290.539C75.5587 291.338 76.0783 292.388 76.1676 293.495C76.2876 294.983 75.6269 296.303 74.4003 297.024L73.8745 297.333C77.8744 297.726 80.998 299.666 81.1873 302.012C81.3765 304.358 78.5556 306.17 74.605 306.389L75.1826 306.722C76.5301 307.499 77.4064 308.852 77.5265 310.341C77.6158 311.448 77.2641 312.479 76.5362 313.244C75.62 314.207 74.2397 314.591 72.8444 314.27C71.4486 313.95 70.2495 312.974 69.6365 311.659ZM64.8046 298.16C62.8679 298.118 61.4185 299.655 61.5743 301.586C61.7301 303.518 63.4324 305.123 65.3696 305.165C65.7785 305.174 66.1647 305.113 66.5249 304.988C66.2619 304.424 65.5625 302.924 65.0555 301.838C65.012 301.745 64.9939 301.593 65.0271 301.486L65.9924 298.388C65.6113 298.247 65.2134 298.169 64.8046 298.16ZM76.8615 305.028L76.359 298.799C75.5107 298.535 74.571 298.351 73.5845 298.273L74.1622 305.435C75.1396 305.399 76.0528 305.255 76.8615 305.028ZM72.9228 305.419C73.0109 305.425 73.1002 305.428 73.189 305.432L72.6083 298.233C72.5192 298.233 72.4307 298.233 72.3433 298.235L69.9936 299.616L70.3416 303.93L72.9228 305.419ZM69.0647 300.162L66.4624 301.693L69.3212 303.342L69.0647 300.162ZM73.8409 296.174C74.7795 295.622 75.2848 294.613 75.1929 293.474C75.1247 292.628 74.7272 291.825 74.0741 291.214C73.2516 290.444 72.1446 290.103 71.1133 290.303C70.0821 290.503 69.2821 291.212 68.9741 292.2L66.4706 300.233C66.4694 300.236 66.4687 300.24 66.468 300.242L66.3655 300.571L73.8409 296.174ZM80.2126 301.992C80.1238 300.891 79.0081 299.863 77.3607 299.162L77.8081 304.708C79.3479 304.075 80.3014 303.093 80.2126 301.992ZM75.7939 312.54C76.3505 311.955 76.6196 311.166 76.5514 310.32C76.4595 309.181 75.7893 308.146 74.7581 307.551L66.5455 302.814L66.7008 303.147C66.7019 303.149 66.7026 303.151 66.7038 303.153L70.516 311.327C70.9848 312.332 71.9023 313.079 72.9694 313.324C74.0377 313.57 75.093 313.277 75.7939 312.54Z" fill="currentColor"/>
<path d="M487 115.25C487.414 115.25 487.75 115.586 487.75 116C487.75 116.414 487.414 116.75 487 116.75L487 115.25ZM201.759 143.538L201.525 144.25L201.759 143.538ZM205.35 243.743L204.8 243.232L205.35 243.743ZM81.3313 302.678C80.9172 302.69 80.5719 302.364 80.56 301.95C80.548 301.536 80.874 301.19 81.288 301.178L81.3313 302.678ZM332 161L332 161.75L332 161.75L332 161ZM485.007 116.783C484.593 116.797 484.246 116.472 484.232 116.058C484.218 115.644 484.543 115.297 484.957 115.284L485.007 116.783ZM480.973 115.565C481.384 115.519 481.755 115.816 481.801 116.228C481.846 116.639 481.549 117.01 481.138 117.056L480.973 115.565ZM477.322 117.652C476.917 117.736 476.52 117.475 476.436 117.069C476.353 116.663 476.614 116.267 477.02 116.183L477.322 117.652ZM473.148 117.196C473.542 117.07 473.965 117.287 474.091 117.681C474.218 118.075 474.001 118.498 473.606 118.624L473.148 117.196ZM470.001 120.015C469.624 120.187 469.179 120.019 469.008 119.642C468.837 119.265 469.004 118.821 469.381 118.649L470.001 120.015ZM465.819 120.508C466.176 120.297 466.636 120.416 466.846 120.772C467.057 121.129 466.938 121.589 466.581 121.8L465.819 120.508ZM463.337 123.918C463 124.158 462.531 124.079 462.291 123.742C462.051 123.404 462.129 122.936 462.467 122.696L463.337 123.918ZM459.296 125.102C459.619 124.844 460.091 124.896 460.35 125.22C460.609 125.543 460.556 126.015 460.233 126.274L459.296 125.102ZM457.2 128.775C456.883 129.042 456.41 129.002 456.143 128.685C455.876 128.368 455.916 127.895 456.233 127.628L457.2 128.775ZM453.229 130.169C453.546 129.902 454.019 129.943 454.286 130.259C454.553 130.576 454.512 131.049 454.196 131.316L453.229 130.169ZM451.154 133.839C450.832 134.1 450.36 134.051 450.099 133.729C449.838 133.408 449.887 132.935 450.209 132.674L451.154 133.839ZM447.128 135.098C447.458 134.848 447.928 134.912 448.179 135.242C448.429 135.571 448.365 136.042 448.036 136.292L447.128 135.098ZM444.824 138.637C444.485 138.874 444.017 138.791 443.78 138.452C443.542 138.112 443.625 137.645 443.964 137.408L444.824 138.637ZM440.711 139.58C441.06 139.357 441.524 139.46 441.746 139.81C441.969 140.159 441.866 140.623 441.516 140.845L440.711 139.58ZM438.117 142.903C437.758 143.11 437.3 142.987 437.093 142.628C436.887 142.269 437.01 141.81 437.369 141.603L438.117 142.903ZM433.945 143.476C434.313 143.285 434.765 143.428 434.956 143.796C435.147 144.164 435.004 144.616 434.636 144.807L433.945 143.476ZM431.079 146.56C430.704 146.736 430.258 146.574 430.082 146.198C429.907 145.823 430.069 145.377 430.444 145.201L431.079 146.56ZM426.867 146.789C427.248 146.628 427.688 146.807 427.849 147.189C428.01 147.571 427.83 148.011 427.449 148.171L426.867 146.789ZM423.741 149.653C423.354 149.8 422.921 149.605 422.774 149.218C422.627 148.83 422.822 148.397 423.209 148.251L423.741 149.653ZM419.525 149.577C419.917 149.443 420.343 149.652 420.477 150.044C420.611 150.436 420.402 150.863 420.01 150.997L419.525 149.577ZM416.267 152.213C415.871 152.335 415.451 152.113 415.329 151.717C415.207 151.321 415.429 150.902 415.824 150.779L416.267 152.213ZM412.037 151.89C412.436 151.779 412.849 152.012 412.96 152.411C413.071 152.81 412.838 153.224 412.439 153.335L412.037 151.89ZM408.615 154.346C408.213 154.447 407.806 154.204 407.705 153.802C407.604 153.4 407.848 152.993 408.249 152.892L408.615 154.346ZM404.449 153.799C404.853 153.708 405.255 153.961 405.347 154.365C405.438 154.769 405.185 155.171 404.781 155.262L404.449 153.799ZM400.865 156.106C400.459 156.189 400.062 155.927 399.98 155.522C399.897 155.116 400.158 154.719 400.564 154.637L400.865 156.106ZM396.761 155.375C397.168 155.3 397.559 155.569 397.635 155.977C397.71 156.384 397.44 156.775 397.033 156.85L396.761 155.375ZM393.068 157.544C392.659 157.611 392.273 157.335 392.206 156.926C392.138 156.518 392.414 156.131 392.823 156.064L393.068 157.544ZM389.01 156.663C389.419 156.602 389.801 156.885 389.862 157.294C389.923 157.704 389.64 158.086 389.23 158.147L389.01 156.663ZM385.254 158.707C384.843 158.761 384.466 158.473 384.412 158.062C384.357 157.651 384.646 157.274 385.056 157.22L385.254 158.707ZM381.212 157.703C381.623 157.654 381.996 157.948 382.045 158.359C382.094 158.771 381.8 159.144 381.389 159.193L381.212 157.703ZM377.43 159.635C377.018 159.679 376.649 159.38 376.606 158.968C376.563 158.556 376.861 158.187 377.273 158.144L377.43 159.635ZM373.37 158.53C373.782 158.491 374.148 158.795 374.186 159.207C374.224 159.62 373.921 159.985 373.508 160.023L373.37 158.53ZM369.59 160.364C369.177 160.397 368.815 160.09 368.782 159.677C368.748 159.264 369.056 158.902 369.468 158.869L369.59 160.364ZM365.472 159.171C365.885 159.142 366.243 159.453 366.272 159.867C366.301 160.28 365.99 160.638 365.577 160.667L365.472 159.171ZM361.715 160.919C361.301 160.943 360.946 160.628 360.921 160.215C360.896 159.802 361.211 159.446 361.624 159.421L361.715 160.919ZM357.66 159.64C358.074 159.62 358.426 159.938 358.447 160.352C358.468 160.765 358.149 161.118 357.736 161.139L357.66 159.64ZM353.78 161.32C353.366 161.338 353.017 161.016 352.999 160.602C352.982 160.188 353.304 159.839 353.718 159.822L353.78 161.32ZM349.832 159.966C350.246 159.953 350.592 160.277 350.606 160.691C350.62 161.105 350.295 161.452 349.881 161.466L349.832 159.966ZM345.877 161.582C345.463 161.592 345.119 161.265 345.109 160.851C345.099 160.437 345.426 160.093 345.84 160.082L345.877 161.582ZM341.919 160.165C342.333 160.158 342.674 160.488 342.682 160.902C342.689 161.316 342.359 161.658 341.945 161.665L341.919 160.165ZM338.038 161.719C337.624 161.723 337.285 161.391 337.281 160.977C337.277 160.563 337.609 160.224 338.023 160.219L338.038 161.719ZM334.032 160.247C334.446 160.245 334.783 160.58 334.785 160.994C334.786 161.408 334.451 161.745 334.037 161.747L334.032 160.247ZM329.966 161.763C329.552 161.768 329.212 161.436 329.207 161.022C329.202 160.608 329.533 160.268 329.947 160.263L329.966 161.763ZM325.878 160.363C326.292 160.347 326.64 160.671 326.655 161.085C326.67 161.498 326.347 161.846 325.933 161.862L325.878 160.363ZM321.91 162.058C321.496 162.083 321.141 161.769 321.115 161.355C321.09 160.942 321.405 160.586 321.818 160.561L321.91 162.058ZM317.756 160.858C318.169 160.823 318.532 161.129 318.567 161.541C318.602 161.954 318.296 162.317 317.883 162.352L317.756 160.858ZM313.875 162.741C313.463 162.786 313.093 162.488 313.048 162.077C313.003 161.665 313.301 161.295 313.712 161.25L313.875 162.741ZM309.669 161.738C310.08 161.683 310.456 161.972 310.511 162.383C310.565 162.793 310.276 163.17 309.866 163.225L309.669 161.738ZM305.878 163.799C305.469 163.863 305.085 163.583 305.022 163.174C304.958 162.764 305.238 162.381 305.647 162.317L305.878 163.799ZM301.632 162.988C302.04 162.915 302.429 163.187 302.502 163.595C302.575 164.003 302.303 164.392 301.896 164.465L301.632 162.988ZM297.935 165.217C297.529 165.299 297.133 165.036 297.052 164.63C296.97 164.224 297.233 163.828 297.639 163.746L297.935 165.217ZM293.66 164.591C294.064 164.501 294.465 164.755 294.555 165.159C294.645 165.564 294.391 165.965 293.986 166.055L293.66 164.591ZM290.057 166.974C289.655 167.073 289.249 166.827 289.15 166.424C289.052 166.022 289.298 165.616 289.7 165.517L290.057 166.974ZM285.763 166.523C286.164 166.416 286.574 166.655 286.681 167.055C286.787 167.455 286.549 167.866 286.149 167.972L285.763 166.523ZM282.254 169.048C281.856 169.162 281.44 168.931 281.326 168.533C281.212 168.135 281.443 167.72 281.841 167.606L282.254 169.048ZM277.951 168.758C278.347 168.637 278.766 168.86 278.888 169.256C279.009 169.652 278.786 170.071 278.39 170.193L277.951 168.758ZM274.531 171.411C274.137 171.539 273.714 171.324 273.586 170.93C273.458 170.536 273.673 170.113 274.067 169.985L274.531 171.411ZM270.227 171.269C270.619 171.134 271.046 171.343 271.18 171.735C271.315 172.126 271.106 172.553 270.715 172.688L270.227 171.269ZM266.891 174.035C266.501 174.176 266.071 173.974 265.93 173.585C265.79 173.195 265.992 172.765 266.381 172.625L266.891 174.035ZM262.582 174.028C262.969 173.882 263.402 174.077 263.548 174.465C263.695 174.852 263.499 175.285 263.112 175.432L262.582 174.028ZM259.332 176.889C258.946 177.041 258.511 176.851 258.359 176.466C258.208 176.08 258.397 175.645 258.783 175.493L259.332 176.889ZM255.016 177.002C255.4 176.846 255.838 177.03 255.994 177.414C256.15 177.797 255.966 178.235 255.583 178.391L255.016 177.002ZM251.851 179.938C251.469 180.099 251.029 179.92 250.868 179.538C250.708 179.157 250.887 178.717 251.268 178.556L251.851 179.938ZM247.529 180.154C247.909 179.989 248.35 180.164 248.515 180.544C248.68 180.924 248.505 181.366 248.125 181.53L247.529 180.154ZM244.439 183.146C244.06 183.314 243.617 183.143 243.449 182.765C243.281 182.386 243.452 181.943 243.831 181.775L244.439 183.146ZM240.11 183.442C240.488 183.272 240.932 183.439 241.103 183.816C241.273 184.194 241.106 184.638 240.728 184.809L240.11 183.442ZM237.051 186.486C236.674 186.659 236.229 186.494 236.056 186.118C235.883 185.742 236.048 185.296 236.424 185.123L237.051 186.486ZM232.75 186.822C233.125 186.647 233.571 186.81 233.746 187.186C233.92 187.562 233.757 188.008 233.382 188.182L232.75 186.822ZM229.698 189.899C229.323 190.074 228.877 189.912 228.701 189.537C228.526 189.161 228.688 188.715 229.063 188.54L229.698 189.899ZM225.403 190.251C225.779 190.075 226.225 190.237 226.4 190.612C226.576 190.988 226.414 191.434 226.038 191.609L225.403 190.251ZM222.365 193.322C221.99 193.496 221.544 193.333 221.369 192.957C221.195 192.582 221.358 192.136 221.734 191.961L222.365 193.322ZM218.046 193.663C218.423 193.491 218.868 193.656 219.041 194.033C219.213 194.409 219.048 194.854 218.671 195.027L218.046 193.663ZM214.982 196.699C214.604 196.868 214.16 196.699 213.991 196.321C213.822 195.943 213.991 195.499 214.369 195.33L214.982 196.699ZM210.688 196.952C211.068 196.788 211.509 196.963 211.674 197.343C211.838 197.723 211.664 198.164 211.283 198.329L210.688 196.952ZM207.52 199.92C207.137 200.078 206.699 199.895 206.541 199.512C206.384 199.129 206.566 198.691 206.949 198.533L207.52 199.92ZM203.196 200.03C203.583 199.882 204.016 200.074 204.165 200.461C204.314 200.848 204.121 201.282 203.734 201.43L203.196 200.03ZM199.912 202.834C199.521 202.97 199.093 202.764 198.957 202.373C198.821 201.982 199.027 201.554 199.418 201.418L199.912 202.834ZM195.606 202.663C196.002 202.543 196.421 202.767 196.541 203.163C196.661 203.56 196.437 203.978 196.04 204.098L195.606 202.663ZM192.103 205.178C191.701 205.277 191.295 205.03 191.197 204.627C191.099 204.225 191.345 203.819 191.748 203.721L192.103 205.178ZM187.84 204.532C188.248 204.463 188.635 204.739 188.704 205.147C188.772 205.556 188.497 205.942 188.088 206.011L187.84 204.532ZM183.996 206.509C183.583 206.538 183.224 206.227 183.195 205.814C183.165 205.401 183.476 205.042 183.889 205.012L183.996 206.509ZM179.93 205.059C180.344 205.081 180.661 205.434 180.639 205.848C180.618 206.261 180.265 206.579 179.851 206.557L179.93 205.059ZM175.722 206.028C175.317 205.942 175.057 205.545 175.142 205.139C175.228 204.734 175.625 204.474 176.031 204.56L175.722 206.028ZM172.293 203.426C172.677 203.581 172.863 204.019 172.707 204.403C172.552 204.787 172.114 204.972 171.731 204.816L172.293 203.426ZM168.023 202.902C167.674 202.68 167.571 202.216 167.794 201.867C168.017 201.518 168.48 201.415 168.83 201.638L168.023 202.902ZM165.723 199.259C166.03 199.537 166.054 200.011 165.776 200.319C165.498 200.626 165.024 200.65 164.717 200.372L165.723 199.259ZM161.853 197.377C161.587 197.059 161.63 196.586 161.948 196.321C162.266 196.056 162.739 196.098 163.005 196.416L161.853 197.377ZM160.654 193.239C160.882 193.585 160.786 194.05 160.441 194.278C160.095 194.506 159.63 194.411 159.401 194.065L160.654 193.239ZM157.282 190.369C157.109 189.993 157.273 189.548 157.649 189.374C158.025 189.2 158.47 189.364 158.644 189.74L157.282 190.369ZM157.299 185.972C157.405 186.373 157.167 186.783 156.766 186.89C156.366 186.996 155.955 186.757 155.849 186.357L157.299 185.972ZM155.065 182.195C155.017 181.784 155.311 181.411 155.722 181.362C156.134 181.314 156.507 181.608 156.555 182.019L155.065 182.195ZM156.332 177.986C156.33 178.401 155.993 178.735 155.579 178.734C155.164 178.732 154.83 178.395 154.832 177.981L156.332 177.986ZM155.079 173.774C155.125 173.362 155.496 173.066 155.908 173.112C156.319 173.159 156.615 173.53 156.569 173.941L155.079 173.774ZM157.227 169.935C157.14 170.34 156.741 170.597 156.336 170.51C155.931 170.422 155.674 170.023 155.761 169.618L157.227 169.935ZM156.851 165.555C156.978 165.161 157.4 164.944 157.795 165.071C158.189 165.198 158.406 165.62 158.279 166.015L156.851 165.555ZM159.71 162.216C159.545 162.596 159.103 162.77 158.723 162.605C158.343 162.44 158.169 161.998 158.334 161.618L159.71 162.216ZM160.205 157.846C160.408 157.485 160.865 157.357 161.226 157.56C161.587 157.763 161.716 158.22 161.513 158.581L160.205 157.846ZM163.684 155.161C163.443 155.498 162.975 155.576 162.638 155.335C162.3 155.094 162.222 154.626 162.463 154.289L163.684 155.161ZM165.108 151.002C165.386 150.695 165.861 150.672 166.168 150.95C166.475 151.228 166.498 151.702 166.22 152.009L165.108 151.002ZM169.111 149.189C168.797 149.459 168.323 149.423 168.054 149.109C167.784 148.795 167.82 148.321 168.134 148.051L169.111 149.189ZM171.516 145.513C171.864 145.287 172.328 145.386 172.554 145.733C172.78 146.08 172.682 146.545 172.334 146.771L171.516 145.513ZM175.854 144.813C175.479 144.989 175.032 144.827 174.857 144.452C174.681 144.077 174.843 143.63 175.218 143.455L175.854 144.813ZM179.169 141.933C179.565 141.812 179.984 142.034 180.106 142.43C180.227 142.826 180.005 143.246 179.609 143.367L179.169 141.933ZM183.532 142.454C183.123 142.52 182.737 142.243 182.671 141.834C182.604 141.425 182.882 141.039 183.291 140.973L183.532 142.454ZM187.494 140.566C187.908 140.553 188.255 140.877 188.268 141.291C188.282 141.705 187.958 142.052 187.544 142.066L187.494 140.566ZM191.602 142.171C191.189 142.136 190.882 141.774 190.916 141.361C190.951 140.948 191.313 140.641 191.726 140.676L191.602 142.171ZM195.881 141.242C196.288 141.318 196.556 141.71 196.479 142.117C196.403 142.524 196.011 142.792 195.604 142.716L195.881 141.242ZM199.553 143.648C199.154 143.535 198.923 143.12 199.035 142.722C199.148 142.323 199.563 142.092 199.961 142.204L199.553 143.648ZM203.896 143.498C204.283 143.645 204.478 144.078 204.331 144.466C204.184 144.853 203.751 145.047 203.364 144.9L203.896 143.498ZM206.897 146.441C206.526 146.257 206.374 145.807 206.558 145.436C206.742 145.064 207.192 144.913 207.563 145.097L206.897 146.441ZM211.055 147.057C211.405 147.278 211.509 147.741 211.288 148.092C211.066 148.442 210.603 148.546 210.253 148.325L211.055 147.057ZM213.387 150.551C213.063 150.293 213.009 149.821 213.267 149.497C213.525 149.173 213.997 149.119 214.321 149.377L213.387 150.551ZM217.32 152.045C217.614 152.337 217.615 152.811 217.324 153.105C217.032 153.399 216.557 153.401 216.263 153.109L217.32 152.045ZM218.841 155.967C218.581 155.644 218.631 155.172 218.953 154.912C219.275 154.651 219.747 154.702 220.008 155.024L218.841 155.967ZM222.359 158.27C222.584 158.618 222.484 159.082 222.137 159.307C221.789 159.532 221.325 159.433 221.1 159.085L222.359 158.27ZM223.029 162.424C222.84 162.055 222.985 161.603 223.353 161.414C223.722 161.224 224.174 161.37 224.363 161.738L223.029 162.424ZM226.024 165.38C226.178 165.765 225.991 166.202 225.607 166.356C225.223 166.51 224.786 166.324 224.632 165.939L226.024 165.38ZM225.914 169.586C225.793 169.19 226.017 168.771 226.413 168.65C226.809 168.529 227.228 168.752 227.349 169.149L225.914 169.586ZM228.358 173.007C228.447 173.412 228.191 173.812 227.787 173.901C227.382 173.99 226.982 173.734 226.893 173.33L228.358 173.007ZM227.586 177.143C227.527 176.733 227.811 176.353 228.221 176.293C228.631 176.234 229.011 176.518 229.071 176.928L227.586 177.143ZM229.509 180.886C229.54 181.299 229.231 181.659 228.818 181.691C228.406 181.723 228.045 181.414 228.013 181.001L229.509 180.886ZM228.19 184.883C228.184 184.469 228.515 184.128 228.929 184.122C229.343 184.116 229.684 184.446 229.69 184.861L228.19 184.883ZM229.634 188.837C229.616 189.25 229.266 189.571 228.852 189.554C228.438 189.536 228.117 189.186 228.135 188.772L229.634 188.837ZM227.862 192.655C227.902 192.243 228.269 191.941 228.681 191.981C229.093 192.021 229.395 192.388 229.355 192.8L227.862 192.655ZM228.868 196.742C228.807 197.152 228.425 197.434 228.016 197.373C227.606 197.312 227.324 196.93 227.385 196.52L228.868 196.742ZM226.715 200.359C226.796 199.952 227.191 199.689 227.597 199.77C228.003 199.851 228.267 200.246 228.186 200.652L226.715 200.359ZM227.318 204.524C227.218 204.926 226.811 205.171 226.409 205.071C226.007 204.971 225.762 204.564 225.862 204.162L227.318 204.524ZM224.835 207.923C224.953 207.526 225.371 207.299 225.768 207.418C226.165 207.536 226.391 207.953 226.273 208.35L224.835 207.923ZM225.059 212.125C224.923 212.517 224.496 212.724 224.105 212.589C223.713 212.453 223.506 212.026 223.641 211.635L225.059 212.125ZM222.286 215.292C222.438 214.907 222.874 214.718 223.259 214.87C223.644 215.022 223.833 215.458 223.681 215.843L222.286 215.292ZM222.145 219.498C221.977 219.876 221.533 220.046 221.155 219.878C220.777 219.709 220.607 219.266 220.775 218.888L222.145 219.498ZM219.112 222.416C219.297 222.045 219.747 221.894 220.118 222.079C220.489 222.263 220.64 222.713 220.455 223.084L219.112 222.416ZM218.615 226.595C218.415 226.958 217.959 227.09 217.596 226.89C217.233 226.69 217.101 226.233 217.301 225.871L218.615 226.595ZM215.345 229.245C215.56 228.891 216.022 228.779 216.376 228.994C216.73 229.21 216.842 229.671 216.626 230.025L215.345 229.245ZM214.492 233.367C214.262 233.711 213.796 233.803 213.452 233.572C213.107 233.342 213.015 232.876 213.246 232.532L214.492 233.367ZM211.005 235.724C211.251 235.39 211.72 235.318 212.054 235.564C212.388 235.809 212.459 236.279 212.214 236.612L211.005 235.724ZM209.793 239.754C209.533 240.077 209.061 240.127 208.739 239.867C208.416 239.607 208.366 239.135 208.626 238.812L209.793 239.754ZM206.109 241.789C206.384 241.479 206.858 241.45 207.168 241.725C207.478 242 207.507 242.474 207.232 242.784L206.109 241.789ZM204.565 245.664C204.278 245.963 203.803 245.972 203.505 245.685C203.206 245.398 203.197 244.923 203.484 244.625L204.565 245.664ZM200.748 247.379C201.045 247.09 201.52 247.095 201.809 247.392C202.099 247.688 202.093 248.163 201.797 248.452L200.748 247.379ZM198.969 251.143C198.665 251.424 198.191 251.406 197.909 251.103C197.628 250.799 197.646 250.324 197.949 250.043L198.969 251.143ZM195.075 252.645C195.386 252.37 195.86 252.399 196.134 252.709C196.408 253.02 196.379 253.494 196.069 253.768L195.075 252.645ZM193.109 256.329C192.793 256.596 192.319 256.557 192.052 256.241C191.784 255.925 191.824 255.452 192.14 255.184L193.109 256.329ZM189.151 257.662C189.472 257.401 189.944 257.45 190.206 257.771C190.467 258.093 190.418 258.565 190.096 258.826L189.151 257.662ZM187.036 261.262C186.709 261.517 186.238 261.459 185.983 261.132C185.728 260.806 185.787 260.334 186.113 260.08L187.036 261.262ZM183.031 262.438C183.362 262.19 183.832 262.257 184.081 262.588C184.329 262.919 184.262 263.389 183.931 263.638L183.031 262.438ZM180.784 265.955C180.448 266.197 179.979 266.122 179.736 265.786C179.494 265.45 179.57 264.981 179.905 264.739L180.784 265.955ZM176.739 266.982C177.079 266.746 177.547 266.83 177.783 267.17C178.019 267.51 177.935 267.977 177.595 268.214L176.739 266.982ZM174.367 270.415C174.022 270.645 173.557 270.553 173.326 270.208C173.096 269.864 173.188 269.398 173.533 269.168L174.367 270.415ZM170.287 271.297C170.636 271.073 171.1 271.173 171.324 271.522C171.548 271.87 171.447 272.334 171.099 272.558L170.287 271.297ZM167.793 274.644C167.44 274.861 166.978 274.752 166.76 274.4C166.543 274.048 166.652 273.586 167.004 273.368L167.793 274.644ZM163.683 275.38C164.039 275.169 164.499 275.286 164.711 275.642C164.922 275.998 164.805 276.459 164.449 276.67L163.683 275.38ZM161.067 278.637C160.708 278.842 160.25 278.716 160.045 278.356C159.84 277.996 159.965 277.538 160.325 277.333L161.067 278.637ZM156.931 279.226C157.295 279.027 157.751 279.161 157.949 279.525C158.147 279.888 158.014 280.344 157.65 280.542L156.931 279.226ZM154.204 282.381C153.837 282.573 153.384 282.43 153.192 282.063C153.001 281.696 153.143 281.243 153.51 281.051L154.204 282.381ZM150.056 282.813C150.426 282.629 150.877 282.779 151.061 283.15C151.246 283.521 151.095 283.971 150.725 284.156L150.056 282.813ZM147.21 285.865C146.835 286.043 146.388 285.883 146.211 285.509C146.033 285.135 146.192 284.688 146.567 284.51L147.21 285.865ZM143.044 286.14C143.421 285.97 143.866 286.138 144.036 286.516C144.206 286.893 144.038 287.337 143.66 287.508L143.044 286.14ZM140.078 289.08C139.697 289.243 139.256 289.066 139.093 288.685C138.931 288.304 139.108 287.864 139.489 287.701L140.078 289.08ZM135.905 289.189C136.289 289.034 136.726 289.22 136.881 289.604C137.036 289.988 136.85 290.425 136.466 290.58L135.905 289.189ZM132.827 292.004C132.44 292.151 132.007 291.957 131.86 291.569C131.713 291.182 131.908 290.749 132.295 290.602L132.827 292.004ZM128.655 291.939C129.045 291.801 129.474 292.005 129.612 292.395C129.751 292.785 129.547 293.214 129.157 293.353L128.655 291.939ZM125.456 294.623C125.063 294.753 124.639 294.54 124.509 294.146C124.379 293.753 124.592 293.329 124.985 293.199L125.456 294.623ZM121.288 294.377C121.684 294.256 122.103 294.478 122.224 294.874C122.346 295.271 122.123 295.69 121.727 295.811L121.288 294.377ZM117.975 296.915C117.577 297.027 117.162 296.795 117.05 296.396C116.938 295.997 117.17 295.583 117.569 295.471L117.975 296.915ZM113.826 296.478C114.227 296.375 114.636 296.617 114.739 297.018C114.842 297.419 114.6 297.828 114.199 297.931L113.826 296.478ZM110.397 298.858C109.994 298.951 109.591 298.7 109.498 298.296C109.404 297.893 109.656 297.49 110.059 297.397L110.397 298.858ZM106.271 298.224C106.676 298.14 107.073 298.402 107.156 298.807C107.239 299.213 106.978 299.61 106.572 299.693L106.271 298.224ZM102.729 300.433C102.321 300.506 101.931 300.234 101.858 299.827C101.785 299.419 102.056 299.029 102.464 298.956L102.729 300.433ZM98.6431 299.591C99.0525 299.528 99.4352 299.81 99.4978 300.219C99.5604 300.628 99.2793 301.011 98.8698 301.074L98.6431 299.591ZM94.9931 301.615C94.5821 301.666 94.207 301.375 94.1552 300.964C94.1034 300.553 94.3945 300.178 94.8055 300.126L94.9931 301.615ZM90.9534 300.56C91.3656 300.519 91.7328 300.82 91.7735 301.232C91.8143 301.644 91.5131 302.012 91.1009 302.052L90.9534 300.56ZM87.1992 302.384C86.786 302.413 86.4273 302.102 86.3979 301.689C86.3685 301.276 86.6796 300.917 87.0927 300.888L87.1992 302.384ZM83.2278 301.109C83.6416 301.091 83.9916 301.412 84.0094 301.826C84.0272 302.24 83.7062 302.589 83.2923 302.607L83.2278 301.109ZM487 116.75C486.319 116.75 485.655 116.761 485.007 116.783L484.957 115.284C485.622 115.261 486.303 115.25 487 115.25L487 116.75ZM481.138 117.056C479.795 117.204 478.526 117.404 477.322 117.652L477.02 116.183C478.271 115.925 479.586 115.718 480.973 115.565L481.138 117.056ZM473.606 118.624C472.341 119.031 471.145 119.497 470.001 120.015L469.381 118.649C470.576 118.108 471.826 117.621 473.148 117.196L473.606 118.624ZM466.581 121.8C465.47 122.455 464.396 123.164 463.337 123.918L462.467 122.696C463.555 121.921 464.665 121.189 465.819 120.508L466.581 121.8ZM460.233 126.274C459.23 127.075 458.226 127.911 457.2 128.775L456.233 127.628C457.263 126.76 458.279 125.915 459.296 125.102L460.233 126.274ZM454.196 131.316C453.217 132.142 452.207 132.985 451.154 133.839L450.209 132.674C451.251 131.828 452.253 130.992 453.229 130.169L454.196 131.316ZM448.036 136.292C447.012 137.07 445.945 137.853 444.824 138.637L443.964 137.408C445.067 136.636 446.119 135.865 447.128 135.098L448.036 136.292ZM441.516 140.845C440.433 141.534 439.303 142.221 438.117 142.903L437.369 141.603C438.535 140.933 439.646 140.257 440.711 139.58L441.516 140.845ZM434.636 144.807C433.499 145.398 432.314 145.983 431.079 146.56L430.444 145.201C431.66 144.633 432.826 144.057 433.945 143.476L434.636 144.807ZM427.449 148.171C426.258 148.673 425.023 149.167 423.741 149.653L423.209 148.251C424.474 147.771 425.692 147.283 426.867 146.789L427.449 148.171ZM420.01 150.997C418.801 151.41 417.554 151.815 416.267 152.213L415.824 150.779C417.098 150.386 418.331 149.985 419.525 149.577L420.01 150.997ZM412.439 153.335C411.2 153.68 409.926 154.017 408.615 154.346L408.249 152.892C409.548 152.565 410.81 152.231 412.037 151.89L412.439 153.335ZM404.781 155.262C403.508 155.551 402.203 155.833 400.865 156.106L400.564 154.637C401.892 154.365 403.187 154.086 404.449 153.799L404.781 155.262ZM397.033 156.85C395.741 157.089 394.42 157.32 393.068 157.544L392.823 156.064C394.166 155.841 395.478 155.612 396.761 155.375L397.033 156.85ZM389.23 158.147C387.932 158.34 386.606 158.527 385.254 158.707L385.056 157.22C386.401 157.041 387.719 156.855 389.01 156.663L389.23 158.147ZM381.389 159.193C380.093 159.346 378.774 159.494 377.43 159.635L377.273 158.144C378.611 158.003 379.923 157.856 381.212 157.703L381.389 159.193ZM373.508 160.023C372.224 160.142 370.918 160.256 369.59 160.364L369.468 158.869C370.791 158.761 372.091 158.648 373.37 158.53L373.508 160.023ZM365.577 160.667C364.309 160.756 363.021 160.84 361.715 160.919L361.624 159.421C362.926 159.343 364.209 159.259 365.472 159.171L365.577 160.667ZM357.736 161.139C356.436 161.204 355.117 161.265 353.78 161.32L353.718 159.822C355.051 159.766 356.365 159.706 357.66 159.64L357.736 161.139ZM349.881 161.466C348.564 161.509 347.23 161.548 345.877 161.582L345.84 160.082C347.188 160.049 348.519 160.01 349.832 159.966L349.881 161.466ZM341.945 161.665C340.658 161.688 339.356 161.706 338.038 161.719L338.023 160.219C339.337 160.206 340.636 160.188 341.919 160.165L341.945 161.665ZM334.037 161.747C333.362 161.749 332.683 161.75 332 161.75L332 160.25C332.682 160.25 333.359 160.249 334.032 160.247L334.037 161.747ZM332 161.75C331.32 161.75 330.642 161.754 329.966 161.763L329.947 160.263C330.63 160.254 331.314 160.25 332 160.25L332 161.75ZM325.933 161.862C324.584 161.911 323.243 161.977 321.91 162.058L321.818 160.561C323.163 160.479 324.517 160.413 325.878 160.363L325.933 161.862ZM317.883 162.352C316.539 162.467 315.203 162.596 313.875 162.741L313.712 161.25C315.052 161.104 316.4 160.973 317.756 160.858L317.883 162.352ZM309.866 163.225C308.528 163.402 307.199 163.594 305.878 163.799L305.647 162.317C306.979 162.11 308.32 161.916 309.669 161.738L309.866 163.225ZM301.896 164.465C300.567 164.702 299.246 164.953 297.935 165.217L297.639 163.746C298.961 163.481 300.292 163.228 301.632 162.988L301.896 164.465ZM293.986 166.055C292.668 166.349 291.358 166.656 290.057 166.974L289.7 165.517C291.011 165.197 292.331 164.887 293.66 164.591L293.986 166.055ZM286.149 167.972C284.841 168.32 283.543 168.679 282.254 169.048L281.841 167.606C283.139 167.234 284.446 166.873 285.763 166.523L286.149 167.972ZM278.39 170.193C277.094 170.589 275.807 170.996 274.531 171.411L274.067 169.985C275.352 169.567 276.646 169.158 277.951 168.758L278.39 170.193ZM270.715 172.688C269.43 173.129 268.155 173.579 266.891 174.035L266.381 172.625C267.653 172.165 268.935 171.713 270.227 171.269L270.715 172.688ZM263.112 175.432C261.841 175.911 260.581 176.398 259.332 176.889L258.783 175.493C260.038 174.999 261.305 174.511 262.582 174.028L263.112 175.432ZM255.583 178.391C254.328 178.903 253.084 179.419 251.851 179.938L251.268 178.556C252.507 178.035 253.756 177.516 255.016 177.002L255.583 178.391ZM248.125 181.53C246.885 182.067 245.656 182.606 244.439 183.146L243.831 181.775C245.052 181.233 246.284 180.693 247.529 180.154L248.125 181.53ZM240.728 184.809C239.49 185.369 238.264 185.929 237.051 186.486L236.424 185.123C237.64 184.565 238.869 184.004 240.11 183.442L240.728 184.809ZM233.382 188.182C232.141 188.758 230.913 189.331 229.698 189.899L229.063 188.54C230.279 187.972 231.507 187.399 232.75 186.822L233.382 188.182ZM226.038 191.609C224.8 192.188 223.576 192.76 222.365 193.322L221.734 191.961C222.942 191.4 224.165 190.829 225.403 190.251L226.038 191.609ZM218.671 195.027C217.426 195.597 216.196 196.155 214.982 196.699L214.369 195.33C215.579 194.788 216.804 194.232 218.046 193.663L218.671 195.027ZM211.283 198.329C210.012 198.879 208.757 199.411 207.52 199.92L206.949 198.533C208.177 198.028 209.423 197.5 210.688 196.952L211.283 198.329ZM203.734 201.43C202.44 201.928 201.166 202.397 199.912 202.834L199.418 201.418C200.656 200.986 201.915 200.523 203.196 200.03L203.734 201.43ZM196.04 204.098C194.704 204.503 193.392 204.864 192.103 205.178L191.748 203.721C193.007 203.414 194.293 203.06 195.606 202.663L196.04 204.098ZM188.088 206.011C186.696 206.245 185.331 206.414 183.996 206.509L183.889 205.012C185.172 204.921 186.489 204.759 187.84 204.532L188.088 206.011ZM179.851 206.557C178.439 206.483 177.063 206.309 175.722 206.028L176.031 204.56C177.29 204.824 178.59 204.988 179.93 205.059L179.851 206.557ZM171.731 204.816C170.455 204.3 169.219 203.665 168.023 202.902L168.83 201.638C169.948 202.351 171.103 202.944 172.293 203.426L171.731 204.816ZM164.717 200.372C163.73 199.479 162.775 198.483 161.853 197.377L163.005 196.416C163.885 197.471 164.791 198.416 165.723 199.259L164.717 200.372ZM159.401 194.065C159.021 193.488 158.646 192.889 158.278 192.267L159.568 191.502C159.925 192.104 160.286 192.683 160.654 193.239L159.401 194.065ZM158.278 192.267C157.917 191.658 157.585 191.025 157.282 190.369L158.644 189.74C158.926 190.351 159.234 190.939 159.568 191.502L158.278 192.267ZM155.849 186.357C155.495 185.021 155.234 183.628 155.065 182.195L156.555 182.019C156.716 183.386 156.964 184.709 157.299 185.972L155.849 186.357ZM154.832 177.981C154.837 176.596 154.919 175.19 155.079 173.774L156.569 173.941C156.416 175.305 156.337 176.658 156.332 177.986L154.832 177.981ZM155.761 169.618C156.055 168.258 156.419 166.9 156.851 165.555L158.279 166.015C157.862 167.312 157.511 168.623 157.227 169.935L155.761 169.618ZM158.334 161.618C158.892 160.334 159.516 159.073 160.205 157.846L161.513 158.581C160.849 159.762 160.248 160.977 159.71 162.216L158.334 161.618ZM162.463 154.289C163.28 153.145 164.162 152.046 165.108 151.002L166.22 152.009C165.314 153.009 164.468 154.063 163.684 155.161L162.463 154.289ZM168.134 148.051C169.199 147.137 170.326 146.287 171.516 145.513L172.334 146.771C171.202 147.507 170.127 148.317 169.111 149.189L168.134 148.051ZM175.218 143.455C176.479 142.864 177.796 142.354 179.169 141.933L179.609 143.367C178.304 143.767 177.052 144.252 175.854 144.813L175.218 143.455ZM183.291 140.973C184.647 140.753 186.048 140.615 187.494 140.566L187.544 142.066C186.161 142.112 184.823 142.244 183.532 142.454L183.291 140.973ZM191.726 140.676C193.077 140.788 194.462 140.975 195.881 141.242L195.604 142.716C194.234 142.459 192.9 142.279 191.602 142.171L191.726 140.676ZM199.961 142.204C200.632 142.394 201.309 142.601 201.993 142.825L201.525 144.25C200.861 144.032 200.203 143.832 199.553 143.648L199.961 142.204ZM201.993 142.825C202.639 143.037 203.274 143.262 203.896 143.498L203.364 144.9C202.763 144.672 202.15 144.455 201.525 144.25L201.993 142.825ZM207.563 145.097C208.78 145.7 209.943 146.354 211.055 147.057L210.253 148.325C209.186 147.65 208.068 147.021 206.897 146.441L207.563 145.097ZM214.321 149.377C215.378 150.218 216.377 151.108 217.32 152.045L216.263 153.109C215.359 152.211 214.401 151.357 213.387 150.551L214.321 149.377ZM220.008 155.024C220.848 156.064 221.632 157.147 222.359 158.27L221.1 159.085C220.401 158.006 219.648 156.965 218.841 155.967L220.008 155.024ZM224.363 161.738C224.97 162.919 225.523 164.134 226.024 165.38L224.632 165.939C224.148 164.735 223.614 163.562 223.029 162.424L224.363 161.738ZM227.349 169.149C227.733 170.41 228.069 171.698 228.358 173.007L226.893 173.33C226.613 172.058 226.287 170.809 225.914 169.586L227.349 169.149ZM229.071 176.928C229.26 178.23 229.405 179.55 229.509 180.886L228.013 181.001C227.912 179.698 227.77 178.411 227.586 177.143L229.071 176.928ZM229.69 184.861C229.71 186.175 229.691 187.501 229.634 188.837L228.135 188.772C228.191 187.465 228.21 186.168 228.19 184.883L229.69 184.861ZM229.355 192.8C229.228 194.109 229.065 195.423 228.868 196.742L227.385 196.52C227.578 195.227 227.737 193.938 227.862 192.655L229.355 192.8ZM228.186 200.652C227.928 201.942 227.639 203.233 227.318 204.524L225.862 204.162C226.178 202.893 226.462 201.625 226.715 200.359L228.186 200.652ZM226.273 208.35C225.898 209.612 225.493 210.871 225.059 212.125L223.641 211.635C224.068 210.401 224.466 209.163 224.835 207.923L226.273 208.35ZM223.681 215.843C223.197 217.068 222.685 218.287 222.145 219.498L220.775 218.888C221.306 217.696 221.81 216.497 222.286 215.292L223.681 215.843ZM220.455 223.084C219.868 224.265 219.254 225.436 218.615 226.595L217.301 225.871C217.931 224.73 218.535 223.578 219.112 222.416L220.455 223.084ZM216.626 230.025C215.94 231.153 215.228 232.267 214.492 233.367L213.246 232.532C213.97 231.451 214.67 230.354 215.345 229.245L216.626 230.025ZM212.214 236.612C211.431 237.677 210.624 238.725 209.793 239.754L208.626 238.812C209.442 237.801 210.236 236.77 211.005 235.724L212.214 236.612ZM207.232 242.784C206.794 243.279 206.35 243.769 205.9 244.253L204.8 243.232C205.242 242.757 205.679 242.275 206.109 241.789L207.232 242.784ZM205.9 244.253C205.47 244.716 205.025 245.186 204.565 245.664L203.484 244.625C203.938 244.153 204.377 243.688 204.8 243.232L205.9 244.253ZM201.797 248.452C200.898 249.33 199.955 250.228 198.969 251.143L197.949 250.043C198.926 249.137 199.86 248.248 200.748 247.379L201.797 248.452ZM196.069 253.768C195.115 254.612 194.128 255.466 193.109 256.329L192.14 255.184C193.151 254.328 194.13 253.481 195.075 252.645L196.069 253.768ZM190.096 258.826C189.102 259.633 188.082 260.446 187.036 261.262L186.113 260.08C187.152 259.269 188.164 258.463 189.151 257.662L190.096 258.826ZM183.931 263.638C182.904 264.409 181.854 265.182 180.784 265.955L179.905 264.739C180.969 263.971 182.011 263.204 183.031 262.438L183.931 263.638ZM177.595 268.214C176.538 268.949 175.461 269.683 174.367 270.415L173.533 269.168C174.62 268.441 175.689 267.712 176.739 266.982L177.595 268.214ZM171.099 272.558C170.013 273.257 168.911 273.952 167.793 274.644L167.004 273.368C168.114 272.681 169.209 271.99 170.287 271.297L171.099 272.558ZM164.449 276.67C163.336 277.331 162.209 277.987 161.067 278.637L160.325 277.333C161.458 276.688 162.578 276.036 163.683 275.38L164.449 276.67ZM157.65 280.542C156.514 281.162 155.365 281.775 154.204 282.381L153.51 281.051C154.663 280.45 155.804 279.841 156.931 279.226L157.65 280.542ZM150.725 284.156C149.564 284.734 148.393 285.304 147.21 285.865L146.567 284.51C147.741 283.953 148.904 283.387 150.056 282.813L150.725 284.156ZM143.66 287.508C142.477 288.041 141.282 288.566 140.078 289.08L139.489 287.701C140.684 287.19 141.869 286.67 143.044 286.14L143.66 287.508ZM136.466 290.58C135.262 291.066 134.049 291.541 132.827 292.004L132.295 290.602C133.507 290.142 134.711 289.671 135.905 289.189L136.466 290.58ZM129.157 293.353C127.932 293.788 126.698 294.212 125.456 294.623L124.985 293.199C126.216 292.791 127.44 292.371 128.655 291.939L129.157 293.353ZM121.727 295.811C120.484 296.192 119.233 296.56 117.975 296.915L117.569 295.471C118.816 295.119 120.055 294.755 121.288 294.377L121.727 295.811ZM114.199 297.931C112.939 298.254 111.671 298.563 110.397 298.858L110.059 297.397C111.322 297.105 112.577 296.798 113.826 296.478L114.199 297.931ZM106.572 299.693C105.297 299.955 104.016 300.202 102.729 300.433L102.464 298.956C103.739 298.728 105.008 298.483 106.271 298.224L106.572 299.693ZM98.8698 301.074C97.583 301.271 96.2907 301.451 94.9931 301.615L94.8055 300.126C96.0898 299.964 97.3691 299.786 98.6431 299.591L98.8698 301.074ZM91.1009 302.052C89.8051 302.18 88.5044 302.291 87.1992 302.384L87.0927 300.888C88.3841 300.796 89.6711 300.686 90.9534 300.56L91.1009 302.052ZM83.2923 302.607C82.6397 302.635 81.986 302.659 81.3313 302.678L81.288 301.178C81.9356 301.16 82.5822 301.136 83.2278 301.109L83.2923 302.607Z" fill="url(#paint0_linear_82_675)"/>
<defs>
<linearGradient id="paint0_linear_82_675" x1="262" y1="155" x2="474" y2="150" gradientUnits="userSpaceOnUse">
<stop offset="0.54548" stop-color="currentColor"/>
<stop offset="1" stop-color="currentColor" stop-opacity="0"/>
</linearGradient>
</defs>
</svg>
