<svg width="407" height="185" viewBox="0 0 407 185" fill="none" xmlns="http://www.w3.org/2000/svg">
<path d="M45.915 27.0438L40.1342 29.2295C39.9386 28.7571 39.6591 28.3218 39.2978 27.9315C38.2543 26.8045 36.7539 26.3261 35.3246 26.5191C35.1583 26.0727 34.9729 25.0524 35.7629 23.4414C35.8803 23.201 35.7777 22.9122 35.5333 22.7961C35.2889 22.6799 34.996 22.7803 34.8771 23.0207C33.9986 24.8122 34.1494 26.0734 34.3742 26.7545C33.8459 26.9465 33.345 27.2363 32.904 27.6308C32.4629 28.0253 32.122 28.4885 31.8782 28.9871C31.2094 28.7038 29.9465 28.4374 28.0489 29.1284C27.7933 29.2217 27.665 29.4992 27.7597 29.7493C27.8544 29.9994 28.1376 30.1273 28.3918 30.0346C30.0975 29.4133 31.1135 29.69 31.5501 29.8946C31.2206 31.2755 31.5641 32.7886 32.6077 33.9157C32.9686 34.3056 33.3833 34.62 33.8437 34.8561L31.0865 40.3075C30.4568 41.5521 30.5078 43.0125 31.2231 44.214C31.9381 45.4152 33.2084 46.176 34.6214 46.248C35.7438 46.3053 36.8178 45.9293 37.6454 45.189C38.7586 44.1933 39.2355 42.7355 38.9211 41.2897L38.7864 40.67C41.7166 43.3829 45.1392 44.3097 46.8933 42.7407C48.6474 41.1717 48.0308 37.7351 45.5579 34.6131L46.1729 34.8032C47.6078 35.2467 49.1292 34.9171 50.2424 33.9213C51.0704 33.1807 51.5522 32.1652 51.5997 31.0614C51.6595 29.672 51.0083 28.3574 49.8588 27.5449C48.7093 26.7317 47.2349 26.5446 45.915 27.0438ZM33.3339 33.2661C32.0179 31.8446 32.1215 29.6372 33.5656 28.3454C35.0098 27.0537 37.2551 27.1594 38.5715 28.5812C38.8494 28.8813 39.0641 29.215 39.2165 29.5762C38.65 29.7907 37.1444 30.3599 36.0535 30.772C35.96 30.8073 35.8426 30.9044 35.7901 31.0076L34.2812 33.9907C33.93 33.8079 33.6118 33.5662 33.3339 33.2661ZM46.1122 37.2979L41.4544 41.4641C40.708 41.0202 39.9556 40.4501 39.2458 39.7674L44.6011 34.9772C45.2259 35.7359 45.7327 36.5257 46.1122 37.2979ZM43.767 34.0591C43.8295 34.1209 43.8912 34.1853 43.9529 34.2491L38.5696 39.0643C38.5101 38.9979 38.4513 38.9315 38.3946 38.8645L37.7924 36.095L41.0184 33.2095L43.767 34.0591ZM37.5541 35.0004L36.8873 31.933L39.9317 32.8738L37.5541 35.0004ZM37.9595 41.4901C38.2001 42.5964 37.835 43.7116 36.9834 44.4733C36.3509 45.0391 35.5296 45.3264 34.671 45.2829C33.5903 45.2276 32.6181 44.6461 32.0715 43.7272C31.5249 42.8082 31.4856 41.6912 31.9672 40.7393L35.8799 33.0035C35.881 33.0005 35.8829 32.9975 35.8844 32.9948L36.0441 32.6787L37.9595 41.4901ZM46.2314 42.025C45.4081 42.7614 43.9536 42.6741 42.3719 41.9507L46.5192 38.241C47.1029 39.8572 47.0546 41.2886 46.2314 42.025ZM50.6175 31.0186C50.5812 31.8625 50.2126 32.6395 49.5801 33.2053C48.7281 33.9674 47.5643 34.2198 46.4663 33.8804L37.7209 31.1776L38.0554 31.051C38.0575 31.0504 38.0596 31.0492 38.0617 31.0486L46.2686 27.9458C47.2781 27.564 48.4062 27.7071 49.2853 28.3286C50.1657 28.9503 50.6634 29.9555 50.6175 31.0186Z" fill="currentColor"/>
<path d="M388.211 174.715C366.418 178.258 274.461 157.888 232.571 129.364C201.375 108.122 232.571 77.3898 249.924 89.864C289.571 118.364 184.569 133.748 166.091 103.384C145.299 69.2173 74.0708 71.864 47.0708 42.864" stroke="url(#paint0_linear_85_680)" stroke-width="1.5" stroke-linecap="round" stroke-dasharray="4 4"/>
<defs>
<linearGradient id="paint0_linear_85_680" x1="144.358" y1="125.641" x2="387.247" y2="185.156" gradientUnits="userSpaceOnUse">
<stop stop-color="currentColor"/>
<stop offset="1" stop-color="currentColor" stop-opacity="0"/>
</linearGradient>
</defs>
</svg>
