<svg width="449" height="226" viewBox="0 0 449 226" fill="none" xmlns="http://www.w3.org/2000/svg">
<path d="M404.071 37.1266L405.163 31.0796C405.67 31.1617 406.189 31.1532 406.711 31.0517C408.219 30.7586 409.403 29.7379 409.972 28.425C410.442 28.5184 411.416 28.8965 412.397 30.4115C412.544 30.6373 412.846 30.7018 413.072 30.5556C413.297 30.4094 413.361 30.1084 413.216 29.8815C412.124 28.1968 410.96 27.6628 410.258 27.4959C410.364 26.9474 410.372 26.3707 410.26 25.7899C410.147 25.209 409.923 24.6769 409.619 24.2086C410.207 23.7904 411.086 22.8597 411.467 20.8887C411.518 20.623 411.345 20.3686 411.081 20.3177C410.817 20.2667 410.561 20.4396 410.51 20.7038C410.168 22.4756 409.407 23.1917 409.006 23.4543C407.986 22.4504 406.506 21.9476 404.998 22.2407C404.476 22.3421 403.992 22.5286 403.552 22.7949L400.275 17.5973C399.526 16.4104 398.242 15.6872 396.839 15.6631C395.437 15.6388 394.128 16.3163 393.339 17.4763C392.712 18.3976 392.483 19.5052 392.695 20.5953C392.98 22.0614 393.991 23.2305 395.398 23.7227L396.001 23.9337C392.156 24.9939 389.597 27.4088 390.046 29.7189C390.495 32.0291 393.773 33.3097 397.735 32.8519L397.254 33.2735C396.134 34.257 395.635 35.7196 395.92 37.1857C396.132 38.2762 396.759 39.2175 397.686 39.8369C398.852 40.6167 400.319 40.7546 401.611 40.2066C402.902 39.6589 403.822 38.5073 404.071 37.1266ZM405.184 23.1972C407.086 22.8275 408.934 24.0737 409.303 25.9757C409.673 27.8777 408.427 29.7255 406.525 30.0952C406.124 30.1733 405.726 30.1801 405.336 30.1198C405.443 29.527 405.727 27.9522 405.933 26.8112C405.951 26.7134 405.928 26.563 405.866 26.4643L404.072 23.6199C404.411 23.4181 404.783 23.2753 405.184 23.1972ZM395.137 31.9129L393.944 25.7786C394.711 25.3788 395.589 25.0402 396.542 24.7968L397.913 31.8498C396.938 31.9813 395.997 31.9964 395.137 31.9129ZM399.133 31.6246C399.048 31.6452 398.961 31.6636 398.874 31.6825L397.496 24.5926C397.583 24.577 397.671 24.562 397.758 24.5491L400.453 25.4919L401.279 29.7405L399.133 31.6246ZM401.519 25.8643L404.504 26.9087L402.128 28.9956L401.519 25.8643ZM395.72 22.8025C394.643 22.4259 393.87 21.5313 393.652 20.4097C393.49 19.5766 393.665 18.7297 394.145 18.0248C394.748 17.1377 395.749 16.6188 396.822 16.6377C397.895 16.6566 398.877 17.2094 399.45 18.1172L404.1 25.493C404.102 25.4956 404.104 25.4988 404.105 25.5015L404.296 25.8027L395.72 22.8025ZM391.003 29.5334C390.793 28.4491 391.616 27.2621 393.053 26.3009L394.115 31.763C392.422 31.4097 391.214 30.6176 391.003 29.5334ZM398.228 39.0268C397.52 38.5532 397.04 37.8331 396.878 37C396.66 35.8779 397.041 34.759 397.898 34.0064L404.726 28.0117L404.663 28.3616C404.662 28.3637 404.662 28.3662 404.662 28.3683L403.112 36.953C402.922 38.009 402.218 38.8902 401.231 39.3091C400.242 39.7292 399.12 39.6236 398.228 39.0268Z" fill="currentColor"/>
<path d="M1.5333 97.9295C44.9966 150.379 115.985 182.345 154.906 186.241C193.827 190.138 233.883 183.186 244.152 167.12C258.404 144.824 240.965 109.084 217.639 96.5888C189.639 81.5888 140.139 85.5888 149.139 118.089C177.139 159.589 410.225 184.732 321.139 85.5888C290.139 51.0888 361.139 35.5888 390.139 29.5888" stroke="url(#paint0_linear_82_673)" stroke-width="1.5" stroke-linecap="round" stroke-dasharray="4 4"/>
<defs>
<linearGradient id="paint0_linear_82_673" x1="124.513" y1="173.5" x2="51.5127" y2="139.5" gradientUnits="userSpaceOnUse">
<stop stop-color="currentColor"/>
<stop offset="0.89" stop-color="currentColor" stop-opacity="0"/>
</linearGradient>
</defs>
</svg>
