<?xml version="1.0" encoding="UTF-8"?>
<!-- Generated by Pixelmator Pro 3.5.11 -->
<svg width="42" height="55" viewBox="0 0 42 55" xmlns="http://www.w3.org/2000/svg">
    <path id="path1" fill="#000000" fill-rule="evenodd" stroke="none" d="M 10.448 17.560001 L 3.32 43.984001 C 2.168 48.375999 1.736 49.743999 0.512 53.632 L 6.848 53.632 C 7.28 51.903999 7.64 50.535999 7.856 49.672001 C 8.576 46.720001 9.08 44.632 9.152 44.127998 L 11.168 36.496002 C 12.464 31.816 14.336 28.072001 17.431999 24.256001 C 20.312 20.799999 23.264 19 26.143999 19 C 29.167999 19 30.968 20.799999 30.968 23.752001 C 30.968 25.48 30.535999 27.568001 29.6 30.879999 L 27.08 40.167999 C 26.143999 43.767998 25.496 47.007999 25.496 48.52 C 25.496 52.119999 27.728001 54.424 31.184 54.424 C 35.287998 54.424 38.023998 51.903999 41.264 45.424 L 39.608002 44.560001 C 37.231998 49.456001 34.784 52.119999 32.695999 52.119999 C 31.688 52.119999 31.040001 51.183998 31.040001 49.743999 C 31.040001 47.512001 31.472 45.568001 33.271999 39.015999 L 35.287998 31.384001 C 36.152 28.143999 36.728001 24.903999 36.728001 23.104 C 36.728001 18.928001 33.560001 16.335999 28.448 16.335999 C 22.976 16.335999 19.232 18.639999 14.264 25.048 L 17.143999 14.464001 L 25.568001 10.216 L 24.992001 7.984001 L 17.936001 11.584 C 19.016001 7.408001 20.24 3.304001 21.32 -0.007999 L 7.784 1.504002 L 7.424 3.088001 C 11.168 3.16 12.032 3.231998 12.752 3.448002 C 13.256 3.664001 13.616 4.167999 13.616 4.672001 C 13.616 5.248001 13.256 7.192001 12.824 8.703999 L 11.168 14.824001 L 4.04 18.424 L 4.76 20.584 Z"/>
</svg>
