<svg width="466" height="528" viewBox="0 0 466 528" fill="none" xmlns="http://www.w3.org/2000/svg">
<path d="M88.4273 39.0582L155.078 0.57735L221.729 39.0582V116.02L155.078 154.501L88.4273 116.02V39.0582Z" stroke="#ED9C11"/>
<path d="M243.505 39.0582L310.156 0.57735L376.807 39.0582V116.02L310.156 154.501L243.505 116.02V39.0582Z" stroke="#ED9C11"/>
<path d="M88.4273 287.535L155.078 249.055L221.729 287.535V364.497L155.078 402.978L88.4273 364.497V287.535Z" stroke="#ED9C11"/>
<path d="M243.505 287.535L310.156 249.055L376.807 287.535V364.497L310.156 402.978L243.505 364.497V287.535Z" stroke="#ED9C11"/>
<path d="M10.8883 164.178L77.539 125.697L144.19 164.178V241.14L77.539 279.62L10.8883 241.14V164.178Z" stroke="#ED9C11"/>
<path d="M165.966 164.178L232.617 125.697L299.268 164.178V241.14L232.617 279.62L165.966 241.14V164.178Z" stroke="#ED9C11"/>
<path d="M165.966 411.48L232.617 372.999L299.268 411.48V488.442L232.617 526.923L165.966 488.442V411.48Z" stroke="#ED9C11"/>
<path d="M321.044 164.178L387.695 125.697L454.346 164.178V241.14L387.695 279.62L321.044 241.14V164.178Z" stroke="#ED9C11"/>
</svg>
