<svg width="1188" height="1030" viewBox="0 0 1188 1030" fill="none" xmlns="http://www.w3.org/2000/svg">
<g opacity="0.06">
<path d="M225.277 99.3851L396 0.86592L566.723 99.3851V296.423L396 394.942L225.277 296.423V99.3851Z" stroke="white" stroke-width="1.5"/>
<path d="M621.277 99.3851L792 0.86592L962.723 99.3851V296.423L792 394.942L621.277 296.423V99.3851Z" stroke="white" stroke-width="1.5"/>
<path d="M225.277 733.577L396 635.058L566.723 733.577V930.615L396 1029.13L225.277 930.615V733.577Z" stroke="white" stroke-width="1.5"/>
<path d="M621.277 733.577L792 635.058L962.723 733.577V930.615L792 1029.13L621.277 930.615V733.577Z" stroke="white" stroke-width="1.5"/>
<path d="M27.277 418.73L198 320.211L368.723 418.73V615.768L198 714.287L27.277 615.768V418.73Z" stroke="white" stroke-width="1.5"/>
<path d="M423.277 418.73L594 320.211L764.723 418.73V615.768L594 714.287L423.277 615.768V418.73Z" stroke="white" stroke-width="1.5"/>
<path d="M819.277 418.73L990 320.211L1160.72 418.73V615.768L990 714.287L819.277 615.768V418.73Z" stroke="white" stroke-width="1.5"/>
</g>
</svg>
