<?xml version="1.0" encoding="UTF-8"?>
<!-- Generated by Pixelmator Pro 3.4.3 -->
<svg width="36" height="36" viewBox="0 0 350 350" xmlns="http://www.w3.org/2000/svg">
    <g id="Logo">
        <path id="Pfad-Kopie" fill="currentColor" fill-rule="evenodd" stroke="none" d="M 172.189453 343.859375 L 27.263672 261.916016 L 27.263672 89.566406 L 172.410156 6.910156 L 321.232422 89.566406 L 321.232422 261.916016 L 172.189453 343.859375 Z M 172.755859 313.423828 C 175.140106 313.46109 177.357422 312.033203 177.357422 312.033203 C 177.357422 312.033203 285.210938 252.71875 285.210938 252.71875 C 285.210938 252.71875 292.280548 248.435104 293.171875 247.742188 C 295.128387 246.221146 296.15625 241.771484 296.15625 241.771484 C 296.15625 241.771484 296.15625 201.059143 296.15625 175.148438 C 301.103943 172.126526 304.40625 166.676956 304.40625 160.455078 C 304.40625 150.952499 296.703766 143.25 287.201172 143.25 C 277.698578 143.25 269.994141 150.952499 269.994141 160.455078 C 269.994141 166.673904 273.294617 172.121719 278.238281 175.144531 C 278.232574 200.354065 278.224609 236.496094 278.224609 236.496094 C 278.224609 236.496094 173.842224 294.131256 172.755859 293.519531 C 158.874588 285.702881 70.253906 235.800781 70.253906 235.800781 C 70.253906 235.800781 70.253906 125.335938 70.253906 125.335938 C 70.253906 125.335938 162.804688 178.080078 162.804688 178.080078 C 162.804688 178.080078 167.758972 181.03717 172.755859 181.066406 C 177.846924 181.096176 181.712891 179.076172 181.712891 179.076172 L 292.175781 117.375 C 292.175781 117.375 295.119232 115.430954 295.162109 109.414063 C 295.203186 103.652679 292.175781 102.447266 292.175781 102.447266 C 292.175781 102.447266 176.736328 37.761719 176.736328 37.761719 C 176.736328 37.761719 174.929749 36.765808 172.755859 36.765625 C 170.893814 36.765472 168.775391 37.761719 168.775391 37.761719 C 168.775391 37.761719 135.88945 56.800507 114.007813 69.46875 C 111.705704 68.325836 109.111702 67.681641 106.367188 67.681641 C 96.864616 67.681641 89.162109 75.386078 89.162109 84.888672 C 89.162109 94.39122 96.864616 102.09375 106.367188 102.09375 C 115.869759 102.09375 123.572266 94.39122 123.572266 84.888672 C 123.572266 84.83786 123.570755 84.787018 123.570313 84.736328 C 143.59964 73.30658 172.755859 56.669922 172.755859 56.669922 C 172.755859 56.669922 268.292969 109.414063 268.292969 109.414063 C 268.292969 109.414063 171.759766 162.158203 171.759766 162.158203 C 171.759766 162.158203 72.244141 105.433594 72.244141 105.433594 C 72.244141 105.433594 66.501602 101.307709 61.296875 101.453125 C 54.360222 101.646912 52.339844 109.414063 52.339844 109.414063 C 52.339844 109.414063 52.757813 242.667969 52.757813 242.667969 C 52.757813 242.667969 53.526253 245.451324 54.330078 246.748047 C 55.886303 249.258514 59.074062 250.724167 59.816406 251.142578 C 76.133568 260.339539 166.785156 311.433594 166.785156 311.433594 C 166.785156 311.433594 170.129929 313.382782 172.755859 313.423828 Z"/>
    </g>
</svg>
