<svg width="200" height="203" viewBox="0 0 219 222" fill="none" xmlns="http://www.w3.org/2000/svg">
<g clip-path="url(#clip0_572_15166)">
<path d="M219.286 115.058V213.568C219.286 217.935 215.739 221.462 211.385 221.462H8.05447C3.6833 221.462 0.15412 217.918 0.15412 213.568V-45.5854C0.136206 -49.9353 3.6833 -53.4797 8.05447 -53.4797H163.965C165.112 -53.4797 166.223 -53.2291 167.244 -52.7637C168.104 -52.3699 168.892 -51.8328 169.555 -51.1526L216.957 -3.78653C217.638 -3.10629 218.175 -2.31865 218.569 -1.4773C219.035 -0.456944 219.286 0.65292 219.286 1.79858V70.6459" fill="#0B141D"/>
<path d="M77.6168 84.5013H29.2294C27.5991 84.5013 26.2734 83.1767 26.2734 81.5477C26.2734 79.9187 27.5991 78.594 29.2294 78.594H77.6168C79.247 78.594 80.5727 79.9187 80.5727 81.5477C80.5727 83.1767 79.247 84.5013 77.6168 84.5013Z" fill="#2A3642"/>
<path d="M168.462 84.5013H94.5819C92.9517 84.5013 91.626 83.1767 91.626 81.5477C91.626 79.9187 92.9517 78.594 94.5819 78.594H168.462C170.092 78.594 171.418 79.9187 171.418 81.5477C171.418 83.1767 170.092 84.5013 168.462 84.5013Z" fill="#2A3642"/>
<path d="M117.495 53.4967H29.2294C27.5991 53.4967 26.2734 52.172 26.2734 50.543C26.2734 48.914 27.5991 47.5894 29.2294 47.5894H117.495C119.125 47.5894 120.451 48.914 120.451 50.543C120.451 52.172 119.125 53.4967 117.495 53.4967Z" fill="#2A3642"/>
<path d="M190.192 53.4967H134.818C133.188 53.4967 131.862 52.172 131.862 50.543C131.862 48.914 133.188 47.5894 134.818 47.5894H190.21C191.84 47.5894 193.166 48.914 193.166 50.543C193.166 52.172 191.84 53.4967 190.192 53.4967Z" fill="#2A3642"/>
<path d="M143.578 22.492H29.2294C27.5991 22.492 26.2734 21.1674 26.2734 19.5384C26.2734 17.9094 27.5991 16.5847 29.2294 16.5847H143.578C145.209 16.5847 146.534 17.9094 146.534 19.5384C146.534 21.1674 145.209 22.492 143.578 22.492Z" fill="#2A3642"/>
<path d="M153.252 115.488H29.2294C27.5991 115.488 26.2734 114.163 26.2734 112.534C26.2734 110.905 27.5991 109.581 29.2294 109.581H153.252C154.883 109.581 156.208 110.905 156.208 112.534C156.208 114.163 154.9 115.488 153.252 115.488Z" fill="#2A3642"/>
<path d="M116.778 184.264C115.721 184.264 114.664 184.192 113.625 184.067C112.013 183.852 110.866 182.366 111.081 180.755C111.296 179.144 112.783 177.998 114.396 178.213C118.337 178.732 122.6 177.891 126.488 175.975C124.374 173.774 122.583 171.196 121.311 168.457C120.11 165.879 119.519 163.105 119.627 160.473C119.752 157.34 120.827 154.53 122.78 152.382C124.983 149.929 128.19 148.569 131.343 148.712C136.771 148.981 141.805 152.847 143.578 158.128C144.564 161.046 144.331 164.429 142.969 167.437C141.877 169.835 140.246 172.234 138.097 174.543C137.685 174.991 137.255 175.42 136.825 175.85C141.106 177.085 146.158 175.958 149.239 172.717C149.813 172.127 150.332 171.446 150.906 170.713C151.819 169.531 152.769 168.314 154.041 167.24C156.531 165.092 160.544 163.767 163.876 165.647C166.545 167.15 167.477 169.889 168.229 172.073C168.319 172.324 168.408 172.574 168.48 172.825C169.053 174.418 169.859 175.116 170.02 175.116C170.271 175.098 170.988 174.561 171.454 174.203C172.385 173.487 173.532 172.61 175.054 172.216C177.831 171.482 180.321 172.735 182.131 173.63C182.364 173.738 182.597 173.863 182.812 173.97C184.281 174.669 184.908 176.441 184.191 177.909C183.492 179.377 181.719 180.003 180.25 179.287C179.999 179.162 179.748 179.036 179.479 178.911C178.405 178.374 177.168 177.766 176.541 177.927C176.183 178.016 175.61 178.464 175.072 178.875C173.962 179.735 172.457 180.898 170.379 181.006C167.172 181.203 164.377 178.875 162.908 174.812C162.819 174.543 162.711 174.275 162.622 173.988C162.138 172.61 161.654 171.178 160.938 170.784C160.293 170.408 158.931 170.838 157.892 171.715C157.068 172.413 156.334 173.362 155.563 174.364C154.936 175.17 154.291 175.993 153.539 176.799C147.968 182.67 138.455 183.923 131.468 180.003C126.936 182.742 121.812 184.264 116.778 184.264ZM130.859 154.602C129.533 154.602 128.136 155.246 127.169 156.32C124.75 159.005 125.377 163.194 126.667 165.951C127.832 168.439 129.515 170.766 131.54 172.646C132.31 171.983 133.063 171.285 133.761 170.534C135.481 168.672 136.771 166.81 137.595 164.984C138.347 163.319 138.491 161.511 137.989 160.008C137.004 157.072 134.03 154.763 131.074 154.62C130.984 154.602 130.931 154.602 130.859 154.602Z" fill="white"/>
<path d="M59.3261 196.561C75.9479 196.561 89.4226 183.097 89.4226 166.488C89.4226 149.879 75.9479 136.414 59.3261 136.414C42.7042 136.414 29.2295 149.879 29.2295 166.488C29.2295 183.097 42.7042 196.561 59.3261 196.561Z" fill="#00BA60"/>
<path d="M53.2708 179.233C52.5183 179.233 51.748 178.947 51.1747 178.374L44.188 171.375C43.0236 170.229 43.0236 168.349 44.188 167.186C45.3525 166.022 47.2156 166.04 48.3801 167.186L53.2887 172.091L69.2327 156.159C70.3971 155.013 72.2603 155.013 73.4247 156.159C74.5892 157.304 74.5892 159.184 73.4247 160.348L55.3847 178.374C54.7756 178.947 54.0232 179.233 53.2708 179.233Z" fill="white"/>
</g>
<defs>
<clipPath id="clip0_572_15166">
<rect width="219" height="276" fill="white" transform="translate(0 -54)"/>
</clipPath>
</defs>
</svg>
