<svg width="982" height="415" viewBox="0 0 982 415" fill="none" xmlns="http://www.w3.org/2000/svg">
<path d="M380.236 0L449.536 40.0101V120.03L380.236 160.04L310.937 120.03V40.0101L380.236 0Z" fill="#25303B"/>
<path d="M328.051 49.8739L380.196 19.7677L432.342 49.8739V110.086L380.196 140.192L328.051 110.086V49.8739Z" stroke="#0B141D" stroke-width="2.064"/>
<path d="M600.052 0L669.352 40.0101V120.03L600.052 160.04L530.753 120.03V40.0101L600.052 0Z" fill="#25303B"/>
<path d="M547.867 49.8739L600.012 19.7677L652.158 49.8739V110.086L600.012 140.192L547.867 110.086V49.8739Z" stroke="#0B141D" stroke-width="2.064"/>
<path d="M167.644 129.124L236.944 169.134V249.154L167.644 289.164L98.3449 249.154V169.134L167.644 129.124Z" fill="#25303B"/>
<path d="M115.459 178.874L167.604 148.768L219.75 178.874V239.086L167.604 269.192L115.459 239.086V178.874Z" stroke="#0B141D" stroke-width="2.064"/>
<path d="M600.052 254.904L669.352 294.914V374.934L600.052 414.945L530.753 374.934V294.914L600.052 254.904Z" fill="#1D262E"/>
<path d="M547.867 304.778L600.012 274.672L652.158 304.778V364.99L600.012 395.096L547.867 364.99V304.778Z" stroke="#0B141D" stroke-width="2.064"/>
<path d="M379.204 254.904L448.504 294.914V374.934L379.204 414.945L309.905 374.934V294.914L379.204 254.904Z" fill="#1D262E"/>
<path d="M328.051 304.778L380.196 274.672L432.341 304.778V364.99L380.196 395.096L328.051 364.99V304.778Z" stroke="#0B141D" stroke-width="2.064"/>
<path d="M460.176 81.528H519.516" stroke="white" stroke-width="1.032"/>
<circle cx="479.268" cy="91.332" r="2.58" fill="#25303B"/>
<circle cx="489.588" cy="91.332" r="2.58" fill="#25303B"/>
<circle cx="499.908" cy="91.332" r="2.58" fill="#25303B"/>
<path d="M460.176 335.4H519.516" stroke="white" stroke-width="1.032"/>
<circle cx="479.268" cy="345.204" r="2.58" fill="#25303B"/>
<circle cx="489.588" cy="345.204" r="2.58" fill="#25303B"/>
<circle cx="499.908" cy="345.204" r="2.58" fill="#25303B"/>
<path d="M250.559 160.797L299.168 126.76" stroke="white" stroke-width="1.032"/>
<circle cx="260.575" cy="141.815" r="2.58" transform="rotate(-35 260.575 141.815)" fill="#25303B"/>
<circle cx="269.029" cy="135.895" r="2.58" transform="rotate(-35 269.029 135.895)" fill="#25303B"/>
<circle cx="277.482" cy="129.976" r="2.58" transform="rotate(-35 277.482 129.976)" fill="#25303B"/>
<path d="M250.801 255.76L299.41 289.796" stroke="white" stroke-width="1.032"/>
<circle cx="272.064" cy="258.68" r="2.58" transform="rotate(35 272.064 258.68)" fill="#25303B"/>
<circle cx="280.517" cy="264.599" r="2.58" transform="rotate(35 280.517 264.599)" fill="#25303B"/>
<circle cx="288.971" cy="270.519" r="2.58" transform="rotate(35 288.971 270.519)" fill="#25303B"/>
<path d="M814.733 129.124L745.433 169.134V249.154L814.733 289.164L884.032 249.154V169.134L814.733 129.124Z" fill="#1D262E"/>
<path d="M866.918 178.874L814.773 148.768L762.628 178.874V239.086L814.773 269.192L866.918 239.086V178.874Z" stroke="#0B141D" stroke-width="2.064"/>
<path d="M731.818 160.797L683.209 126.76" stroke="white" stroke-width="1.032"/>
<circle cx="2.58" cy="2.58" r="2.58" transform="matrix(-0.819152 -0.573576 -0.573576 0.819152 725.395 141.181)" fill="#25303B"/>
<circle cx="2.58" cy="2.58" r="2.58" transform="matrix(-0.819152 -0.573576 -0.573576 0.819152 716.941 135.262)" fill="#25303B"/>
<circle cx="2.58" cy="2.58" r="2.58" transform="matrix(-0.819152 -0.573576 -0.573576 0.819152 708.488 129.343)" fill="#25303B"/>
<path d="M731.576 255.761L682.967 289.797" stroke="white" stroke-width="1.032"/>
<circle cx="2.58" cy="2.58" r="2.58" transform="matrix(-0.819152 0.573576 0.573576 0.819152 710.947 255.087)" fill="#25303B"/>
<circle cx="2.58" cy="2.58" r="2.58" transform="matrix(-0.819152 0.573576 0.573576 0.819152 702.494 261.006)" fill="#25303B"/>
<circle cx="2.58" cy="2.58" r="2.58" transform="matrix(-0.819152 0.573576 0.573576 0.819152 694.04 266.926)" fill="#25303B"/>
<circle cx="18.4802" cy="301.344" r="16.512" stroke="#25303B" stroke-width="2.064"/>
<circle cx="18.4801" cy="301.344" r="8.256" fill="#25303B"/>
<path d="M38.9993 288.764L87.6077 254.728" stroke="white" stroke-width="1.032"/>
<circle cx="60.2619" cy="285.845" r="2.58" transform="rotate(-35 60.2619 285.845)" fill="#25303B"/>
<circle cx="68.7156" cy="279.925" r="2.58" transform="rotate(-35 68.7156 279.925)" fill="#25303B"/>
<circle cx="77.1692" cy="274.006" r="2.58" transform="rotate(-35 77.1692 274.006)" fill="#25303B"/>
<circle cx="963.656" cy="115.584" r="16.512" transform="rotate(-180 963.656 115.584)" stroke="#1D262E" stroke-width="2.064"/>
<circle cx="963.656" cy="115.584" r="8.256" transform="rotate(-180 963.656 115.584)" fill="#1D262E"/>
<path d="M943.137 128.164L894.528 162.2" stroke="white" stroke-width="1.032"/>
<circle cx="921.874" cy="131.083" r="2.58" transform="rotate(145 921.874 131.083)" fill="#25303B"/>
<circle cx="913.42" cy="137.003" r="2.58" transform="rotate(145 913.42 137.003)" fill="#25303B"/>
<circle cx="904.967" cy="142.922" r="2.58" transform="rotate(145 904.967 142.922)" fill="#25303B"/>
</svg>
